M48
;Layer_Color=6321
;FILE_FORMAT=2:5
INCH,LZ
;TYPE=PLATED
T1F00S00C0.02800
T2F00S00C0.03000
T3F00S00C0.03200
T4F00S00C0.03500
T5F00S00C0.03937
T6F00S00C0.04000
T7F00S00C0.04100
T8F00S00C0.05000
T9F00S00C0.05118
T10F00S00C0.05906
T11F00S00C0.12600
%
T01
X0252Y0146
X022Y0167
X0287Y0176
Y0195
X03Y0251
X0307Y0321
X0302Y0331
X0305Y0405
Y0416
Y0441
Y0454
X0056Y0523
T02
X0225748Y0127362
Y0141142
T03
X0337Y0301
Y0311
X01125Y0265
Y0255
Y0245
Y0235
Y0225
Y0215
X0337Y0321
Y0331
Y0341
Y0351
T04
X0143Y04
X0153
X0163
X0173
X0183
X0193
X0203
X0213
X0223
X0233
X0243
X0253
X0263
X0273
Y048
X0263
X0253
X0243
X0233
X0223
X0213
X0203
X0193
X0183
X0173
X0163
X0153
X0143
T05
X032Y0215
Y0225
Y0235
Y0245
Y0255
Y0265
Y0275
Y0285
Y0301
Y0311
X03375Y0285
Y0275
Y0265
Y0255
Y0245
Y0235
Y0225
Y0215
X0185Y0175
X0175
X0165
X013Y0215
Y0225
Y0235
Y0245
Y0255
Y0265
Y0285
Y0295
Y0305
Y0315
Y0325
Y0335
Y0345
Y0355
X032Y0351
Y0341
Y0331
Y0321
Y0361
Y0371
Y0381
Y0391
T06
X024Y0175
X025
X026
T07
X01575Y0155
X01925
X02095Y0387
X01745
T08
X0261Y0287
Y0297
Y0307
Y0348
Y0358
Y0368
T09
X01225Y0125472
Y0145157
X0325
Y0125472
Y0164843
Y0184528
X01225
Y0164843
T10
X0170157Y013
X0189843
X0265157
X0284843
X0288Y0214157
Y0233843
Y0259157
Y0278843
Y0306157
X0252343Y0255
X0232657
X0202343
X0182657
X01575Y0295157
Y0314843
X0157Y0348157
Y0367843
X0288Y0325843
T11
X0191Y0297
Y0358
M30
