G04 Layer_Color=15132400*
%FSLAX25Y25*%
%MOIN*%
G70*
G01*
G75*
%ADD20C,0.01200*%
%ADD23C,0.01000*%
%ADD41C,0.00984*%
%ADD42C,0.00787*%
%ADD43C,0.00394*%
%ADD44C,0.00800*%
%ADD45C,0.00500*%
%ADD46R,0.03000X0.02550*%
%ADD47R,0.02992X0.02550*%
%ADD48R,0.02500X0.10000*%
D20*
X203998Y124248D02*
X202749Y125498D01*
X200250D01*
X199000Y124248D01*
Y119250D01*
X200250Y118000D01*
X202749D01*
X203998Y119250D01*
Y121749D01*
X201499D01*
X206498Y118000D02*
Y125498D01*
X211496Y118000D01*
Y125498D01*
X213995D02*
Y118000D01*
X217744D01*
X218993Y119250D01*
Y124248D01*
X217744Y125498D01*
X213995D01*
X136000Y121749D02*
X140998D01*
X138499Y124248D02*
Y119250D01*
X143498Y118000D02*
X145997D01*
X144747D01*
Y125498D01*
X143498Y124248D01*
X154744Y118000D02*
X149746D01*
X154744Y122998D01*
Y124248D01*
X153494Y125498D01*
X150995D01*
X149746Y124248D01*
X157243Y125498D02*
Y120499D01*
X159742Y118000D01*
X162241Y120499D01*
Y125498D01*
D23*
X128000Y395000D02*
Y485000D01*
X288000D01*
Y395000D02*
Y484000D01*
X128000Y395000D02*
X288000D01*
X208500Y274500D02*
Y319500D01*
X243500D01*
Y274500D02*
Y319500D01*
X208500Y274500D02*
X243500D01*
X208500Y335500D02*
Y380500D01*
X243500D01*
Y335500D02*
Y380500D01*
X208500Y335500D02*
X243500D01*
X342000Y296000D02*
Y356000D01*
X332400Y296000D02*
Y356000D01*
Y296000D02*
X342000D01*
X332400Y356000D02*
X342000D01*
X107500Y210000D02*
Y270000D01*
X117100Y210000D02*
Y270000D01*
X107500D02*
X117100D01*
X107500Y210000D02*
X117100D01*
X216999Y148998D02*
X215999Y149998D01*
X214000D01*
X213000Y148998D01*
Y145000D01*
X214000Y144000D01*
X215999D01*
X216999Y145000D01*
X218998Y144000D02*
X220997D01*
X219998D01*
Y149998D01*
X218998Y148998D01*
X208999Y232998D02*
X207999Y233998D01*
X206000D01*
X205000Y232998D01*
Y229000D01*
X206000Y228000D01*
X207999D01*
X208999Y229000D01*
X214997Y228000D02*
X210998D01*
X214997Y231999D01*
Y232998D01*
X213997Y233998D01*
X211998D01*
X210998Y232998D01*
X248999Y155998D02*
X247999Y156998D01*
X246000D01*
X245000Y155998D01*
Y152000D01*
X246000Y151000D01*
X247999D01*
X248999Y152000D01*
X250998Y155998D02*
X251998Y156998D01*
X253997D01*
X254997Y155998D01*
Y154999D01*
X253997Y153999D01*
X252997D01*
X253997D01*
X254997Y152999D01*
Y152000D01*
X253997Y151000D01*
X251998D01*
X250998Y152000D01*
X296999Y155998D02*
X295999Y156998D01*
X294000D01*
X293000Y155998D01*
Y152000D01*
X294000Y151000D01*
X295999D01*
X296999Y152000D01*
X301997Y151000D02*
Y156998D01*
X298998Y153999D01*
X302997D01*
X147999Y183998D02*
X146999Y184998D01*
X145000D01*
X144000Y183998D01*
Y180000D01*
X145000Y179000D01*
X146999D01*
X147999Y180000D01*
X153997Y184998D02*
X149998D01*
Y181999D01*
X151997Y182999D01*
X152997D01*
X153997Y181999D01*
Y180000D01*
X152997Y179000D01*
X150998D01*
X149998Y180000D01*
X168000Y157998D02*
Y152000D01*
X170999D01*
X171999Y153000D01*
Y156998D01*
X170999Y157998D01*
X168000D01*
X173998Y152000D02*
X175997D01*
X174998D01*
Y157998D01*
X173998Y156998D01*
X189000Y389998D02*
Y384000D01*
X191999D01*
X192999Y385000D01*
Y388998D01*
X191999Y389998D01*
X189000D01*
X198997Y384000D02*
X194998D01*
X198997Y387999D01*
Y388998D01*
X197997Y389998D01*
X195998D01*
X194998Y388998D01*
X314999Y195998D02*
X312999D01*
X313999D01*
Y191000D01*
X312999Y190000D01*
X312000D01*
X311000Y191000D01*
X320997Y190000D02*
X316998D01*
X320997Y193999D01*
Y194998D01*
X319997Y195998D01*
X317998D01*
X316998Y194998D01*
X133999Y195998D02*
X131999D01*
X132999D01*
Y191000D01*
X131999Y190000D01*
X131000D01*
X130000Y191000D01*
X135998Y194998D02*
X136998Y195998D01*
X138997D01*
X139997Y194998D01*
Y193999D01*
X138997Y192999D01*
X137997D01*
X138997D01*
X139997Y191999D01*
Y191000D01*
X138997Y190000D01*
X136998D01*
X135998Y191000D01*
X274332Y317998D02*
X272666D01*
X273499D01*
Y313833D01*
X272666Y313000D01*
X271833D01*
X271000Y313833D01*
X278498Y313000D02*
Y317998D01*
X275998Y315499D01*
X279331D01*
X190999Y269998D02*
X188999D01*
X189999D01*
Y265000D01*
X188999Y264000D01*
X188000D01*
X187000Y265000D01*
X196997Y269998D02*
X192998D01*
Y266999D01*
X194997Y267999D01*
X195997D01*
X196997Y266999D01*
Y265000D01*
X195997Y264000D01*
X193998D01*
X192998Y265000D01*
X240999Y268998D02*
X238999D01*
X239999D01*
Y264000D01*
X238999Y263000D01*
X238000D01*
X237000Y264000D01*
X246997Y268998D02*
X244997Y267998D01*
X242998Y265999D01*
Y264000D01*
X243998Y263000D01*
X245997D01*
X246997Y264000D01*
Y264999D01*
X245997Y265999D01*
X242998D01*
X277332Y270998D02*
X275666D01*
X276499D01*
Y266833D01*
X275666Y266000D01*
X274833D01*
X274000Y266833D01*
X278998Y270998D02*
X282331D01*
Y270165D01*
X278998Y266833D01*
Y266000D01*
X274999Y225998D02*
X272999D01*
X273999D01*
Y221000D01*
X272999Y220000D01*
X272000D01*
X271000Y221000D01*
X276998Y224998D02*
X277998Y225998D01*
X279997D01*
X280997Y224998D01*
Y223999D01*
X279997Y222999D01*
X280997Y221999D01*
Y221000D01*
X279997Y220000D01*
X277998D01*
X276998Y221000D01*
Y221999D01*
X277998Y222999D01*
X276998Y223999D01*
Y224998D01*
X277998Y222999D02*
X279997D01*
X273999Y144998D02*
X271999D01*
X272999D01*
Y140000D01*
X271999Y139000D01*
X271000D01*
X270000Y140000D01*
X275998D02*
X276998Y139000D01*
X278997D01*
X279997Y140000D01*
Y143998D01*
X278997Y144998D01*
X276998D01*
X275998Y143998D01*
Y142999D01*
X276998Y141999D01*
X279997D01*
X175999Y145998D02*
X173999D01*
X174999D01*
Y141000D01*
X173999Y140000D01*
X173000D01*
X172000Y141000D01*
X177998Y140000D02*
X179997D01*
X178998D01*
Y145998D01*
X177998Y144998D01*
X186995Y140000D02*
X182996D01*
X186995Y143999D01*
Y144998D01*
X185995Y145998D01*
X183996D01*
X182996Y144998D01*
X161999Y360998D02*
X159999D01*
X160999D01*
Y356000D01*
X159999Y355000D01*
X159000D01*
X158000Y356000D01*
X163998Y355000D02*
X165997D01*
X164998D01*
Y360998D01*
X163998Y359998D01*
X168996D02*
X169996Y360998D01*
X171995D01*
X172995Y359998D01*
Y358999D01*
X171995Y357999D01*
X170996D01*
X171995D01*
X172995Y356999D01*
Y356000D01*
X171995Y355000D01*
X169996D01*
X168996Y356000D01*
X162999Y307998D02*
X160999D01*
X161999D01*
Y303000D01*
X160999Y302000D01*
X160000D01*
X159000Y303000D01*
X164998Y302000D02*
X166997D01*
X165998D01*
Y307998D01*
X164998Y306998D01*
X172995Y302000D02*
Y307998D01*
X169996Y304999D01*
X173995D01*
X259999Y377000D02*
Y380998D01*
X258999Y381998D01*
X257000D01*
X256000Y380998D01*
Y377000D01*
X257000Y376000D01*
X258999D01*
X257999Y377999D02*
X259999Y376000D01*
X258999D02*
X259999Y377000D01*
X261998Y376000D02*
X263997D01*
X262998D01*
Y381998D01*
X261998Y380998D01*
X259999Y315000D02*
Y318998D01*
X258999Y319998D01*
X257000D01*
X256000Y318998D01*
Y315000D01*
X257000Y314000D01*
X258999D01*
X257999Y315999D02*
X259999Y314000D01*
X258999D02*
X259999Y315000D01*
X265997Y314000D02*
X261998D01*
X265997Y317999D01*
Y318998D01*
X264997Y319998D01*
X262998D01*
X261998Y318998D01*
X207000Y174000D02*
Y179998D01*
X209999D01*
X210999Y178998D01*
Y176999D01*
X209999Y175999D01*
X207000D01*
X208999D02*
X210999Y174000D01*
X212998D02*
X214997D01*
X213998D01*
Y179998D01*
X212998Y178998D01*
X205000Y197000D02*
Y202998D01*
X207999D01*
X208999Y201998D01*
Y199999D01*
X207999Y198999D01*
X205000D01*
X206999D02*
X208999Y197000D01*
X214997D02*
X210998D01*
X214997Y200999D01*
Y201998D01*
X213997Y202998D01*
X211998D01*
X210998Y201998D01*
X302000Y438000D02*
Y443998D01*
X304999D01*
X305999Y442998D01*
Y440999D01*
X304999Y439999D01*
X302000D01*
X303999D02*
X305999Y438000D01*
X307998Y442998D02*
X308998Y443998D01*
X310997D01*
X311997Y442998D01*
Y441999D01*
X310997Y440999D01*
X309997D01*
X310997D01*
X311997Y439999D01*
Y439000D01*
X310997Y438000D01*
X308998D01*
X307998Y439000D01*
X302000Y424000D02*
Y429998D01*
X304999D01*
X305999Y428998D01*
Y426999D01*
X304999Y425999D01*
X302000D01*
X303999D02*
X305999Y424000D01*
X310997D02*
Y429998D01*
X307998Y426999D01*
X311997D01*
X302000Y413000D02*
Y418998D01*
X304999D01*
X305999Y417998D01*
Y415999D01*
X304999Y414999D01*
X302000D01*
X303999D02*
X305999Y413000D01*
X311997Y418998D02*
X307998D01*
Y415999D01*
X309997Y416999D01*
X310997D01*
X311997Y415999D01*
Y414000D01*
X310997Y413000D01*
X308998D01*
X307998Y414000D01*
X302000Y402000D02*
Y407998D01*
X304999D01*
X305999Y406998D01*
Y404999D01*
X304999Y403999D01*
X302000D01*
X303999D02*
X305999Y402000D01*
X311997Y407998D02*
X309997Y406998D01*
X307998Y404999D01*
Y403000D01*
X308998Y402000D01*
X310997D01*
X311997Y403000D01*
Y403999D01*
X310997Y404999D01*
X307998D01*
X302000Y451000D02*
Y456998D01*
X304999D01*
X305999Y455998D01*
Y453999D01*
X304999Y452999D01*
X302000D01*
X303999D02*
X305999Y451000D01*
X307998Y456998D02*
X311997D01*
Y455998D01*
X307998Y452000D01*
Y451000D01*
X302000Y462000D02*
Y467998D01*
X304999D01*
X305999Y466998D01*
Y464999D01*
X304999Y463999D01*
X302000D01*
X303999D02*
X305999Y462000D01*
X307998Y466998D02*
X308998Y467998D01*
X310997D01*
X311997Y466998D01*
Y465999D01*
X310997Y464999D01*
X311997Y463999D01*
Y463000D01*
X310997Y462000D01*
X308998D01*
X307998Y463000D01*
Y463999D01*
X308998Y464999D01*
X307998Y465999D01*
Y466998D01*
X308998Y464999D02*
X310997D01*
X302000Y473000D02*
Y478998D01*
X304999D01*
X305999Y477998D01*
Y475999D01*
X304999Y474999D01*
X302000D01*
X303999D02*
X305999Y473000D01*
X307998Y474000D02*
X308998Y473000D01*
X310997D01*
X311997Y474000D01*
Y477998D01*
X310997Y478998D01*
X308998D01*
X307998Y477998D01*
Y476999D01*
X308998Y475999D01*
X311997D01*
X253000Y334000D02*
Y339998D01*
X255999D01*
X256999Y338998D01*
Y336999D01*
X255999Y335999D01*
X253000D01*
X254999D02*
X256999Y334000D01*
X258998D02*
X260997D01*
X259998D01*
Y339998D01*
X258998Y338998D01*
X263996D02*
X264996Y339998D01*
X266996D01*
X267995Y338998D01*
Y335000D01*
X266996Y334000D01*
X264996D01*
X263996Y335000D01*
Y338998D01*
X299000Y268000D02*
Y273998D01*
X301999D01*
X302999Y272998D01*
Y270999D01*
X301999Y269999D01*
X299000D01*
X300999D02*
X302999Y268000D01*
X304998D02*
X306997D01*
X305998D01*
Y273998D01*
X304998Y272998D01*
X309996Y268000D02*
X311996D01*
X310996D01*
Y273998D01*
X309996Y272998D01*
X298000Y237000D02*
Y242998D01*
X300999D01*
X301999Y241998D01*
Y239999D01*
X300999Y238999D01*
X298000D01*
X299999D02*
X301999Y237000D01*
X303998D02*
X305997D01*
X304998D01*
Y242998D01*
X303998Y241998D01*
X312995Y237000D02*
X308996D01*
X312995Y240999D01*
Y241998D01*
X311996Y242998D01*
X309996D01*
X308996Y241998D01*
X290000Y345000D02*
Y349998D01*
X292499D01*
X293332Y349165D01*
Y347499D01*
X292499Y346666D01*
X290000D01*
X291666D02*
X293332Y345000D01*
X294998D02*
X296665D01*
X295831D01*
Y349998D01*
X294998Y349165D01*
X299164D02*
X299997Y349998D01*
X301663D01*
X302496Y349165D01*
Y348332D01*
X301663Y347499D01*
X300830D01*
X301663D01*
X302496Y346666D01*
Y345833D01*
X301663Y345000D01*
X299997D01*
X299164Y345833D01*
X249000Y269000D02*
Y274998D01*
X251999D01*
X252999Y273998D01*
Y271999D01*
X251999Y270999D01*
X249000D01*
X250999D02*
X252999Y269000D01*
X254998D02*
X256997D01*
X255998D01*
Y274998D01*
X254998Y273998D01*
X262996Y269000D02*
Y274998D01*
X259996Y271999D01*
X263995D01*
X120000Y199000D02*
Y204998D01*
X122999D01*
X123999Y203998D01*
Y201999D01*
X122999Y200999D01*
X120000D01*
X121999D02*
X123999Y199000D01*
X125998D02*
X127997D01*
X126998D01*
Y204998D01*
X125998Y203998D01*
X134995Y204998D02*
X130996D01*
Y201999D01*
X132996Y202999D01*
X133995D01*
X134995Y201999D01*
Y200000D01*
X133995Y199000D01*
X131996D01*
X130996Y200000D01*
X153000Y262000D02*
Y267998D01*
X155999D01*
X156999Y266998D01*
Y264999D01*
X155999Y263999D01*
X153000D01*
X154999D02*
X156999Y262000D01*
X158998D02*
X160997D01*
X159998D01*
Y267998D01*
X158998Y266998D01*
X167995Y267998D02*
X165996Y266998D01*
X163996Y264999D01*
Y263000D01*
X164996Y262000D01*
X166996D01*
X167995Y263000D01*
Y263999D01*
X166996Y264999D01*
X163996D01*
X270000Y160000D02*
Y164998D01*
X272499D01*
X273332Y164165D01*
Y162499D01*
X272499Y161666D01*
X270000D01*
X271666D02*
X273332Y160000D01*
X274998D02*
X276664D01*
X275831D01*
Y164998D01*
X274998Y164165D01*
X279164Y164998D02*
X282496D01*
Y164165D01*
X279164Y160833D01*
Y160000D01*
X192000Y186998D02*
Y182000D01*
X193000Y181000D01*
X194999D01*
X195999Y182000D01*
Y186998D01*
X197998Y181000D02*
X199997D01*
X198998D01*
Y186998D01*
X197998Y185998D01*
X235000Y193998D02*
Y189000D01*
X236000Y188000D01*
X237999D01*
X238999Y189000D01*
Y193998D01*
X244997Y188000D02*
X240998D01*
X244997Y191999D01*
Y192998D01*
X243997Y193998D01*
X241998D01*
X240998Y192998D01*
X115000Y402998D02*
Y398000D01*
X116000Y397000D01*
X117999D01*
X118999Y398000D01*
Y402998D01*
X120998Y401998D02*
X121998Y402998D01*
X123997D01*
X124997Y401998D01*
Y400999D01*
X123997Y399999D01*
X122997D01*
X123997D01*
X124997Y398999D01*
Y398000D01*
X123997Y397000D01*
X121998D01*
X120998Y398000D01*
X239000Y132998D02*
X240999D01*
X240000D01*
Y127000D01*
X239000D01*
X240999D01*
X243998D02*
Y132998D01*
X247997Y127000D01*
Y132998D01*
X249996D02*
X253995D01*
X251996D01*
Y127000D01*
X271000Y294998D02*
Y289000D01*
X274999D01*
X280997Y294998D02*
X276998D01*
Y289000D01*
X280997D01*
X276998Y291999D02*
X278997D01*
X282996Y294998D02*
Y289000D01*
X285995D01*
X286995Y290000D01*
Y293998D01*
X285995Y294998D01*
X282996D01*
X288994D02*
Y289000D01*
X292993D01*
X294992Y291999D02*
X298991D01*
X296992Y293998D02*
Y290000D01*
X268000Y247998D02*
Y242000D01*
X271999D01*
X277997Y247998D02*
X273998D01*
Y242000D01*
X277997D01*
X273998Y244999D02*
X275997D01*
X279996Y247998D02*
Y242000D01*
X282995D01*
X283995Y243000D01*
Y246998D01*
X282995Y247998D01*
X279996D01*
X285994Y242000D02*
Y247998D01*
X288993D01*
X289993Y246998D01*
Y244999D01*
X288993Y243999D01*
X285994D01*
X287994D02*
X289993Y242000D01*
X291992Y244999D02*
X295991D01*
X293992Y246998D02*
Y243000D01*
X277000Y341998D02*
Y336000D01*
X280999D01*
X286997Y341998D02*
X282998D01*
Y336000D01*
X286997D01*
X282998Y338999D02*
X284997D01*
X288996Y341998D02*
Y336000D01*
X291995D01*
X292995Y337000D01*
Y340998D01*
X291995Y341998D01*
X288996D01*
X294994Y336000D02*
Y341998D01*
X296993Y339999D01*
X298993Y341998D01*
Y336000D01*
X300992Y338999D02*
X304991D01*
X302992Y340998D02*
Y337000D01*
X231999Y242998D02*
X229999Y241998D01*
X228000Y239999D01*
Y238000D01*
X229000Y237000D01*
X230999D01*
X231999Y238000D01*
Y238999D01*
X230999Y239999D01*
X228000D01*
X233998Y242998D02*
Y238999D01*
X235997Y237000D01*
X237997Y238999D01*
Y242998D01*
X249993Y241998D02*
X248993Y242998D01*
X246994D01*
X245994Y241998D01*
Y238000D01*
X246994Y237000D01*
X248993D01*
X249993Y238000D01*
Y239999D01*
X247993D01*
X251992Y237000D02*
Y242998D01*
X255991Y237000D01*
Y242998D01*
X257990D02*
Y237000D01*
X260989D01*
X261989Y238000D01*
Y241998D01*
X260989Y242998D01*
X257990D01*
X181999D02*
X178000D01*
Y239999D01*
X179999Y240999D01*
X180999D01*
X181999Y239999D01*
Y238000D01*
X180999Y237000D01*
X179000D01*
X178000Y238000D01*
X183998Y242998D02*
Y238999D01*
X185997Y237000D01*
X187997Y238999D01*
Y242998D01*
X199993Y241998D02*
X198993Y242998D01*
X196994D01*
X195994Y241998D01*
Y238000D01*
X196994Y237000D01*
X198993D01*
X199993Y238000D01*
Y239999D01*
X197994D01*
X201992Y237000D02*
Y242998D01*
X205991Y237000D01*
Y242998D01*
X207990D02*
Y237000D01*
X210989D01*
X211989Y238000D01*
Y241998D01*
X210989Y242998D01*
X207990D01*
X305999Y126998D02*
X304999Y127998D01*
X303000D01*
X302000Y126998D01*
Y123000D01*
X303000Y122000D01*
X304999D01*
X305999Y123000D01*
Y124999D01*
X303999D01*
X307998Y122000D02*
Y127998D01*
X311997Y122000D01*
Y127998D01*
X313996D02*
Y122000D01*
X316995D01*
X317995Y123000D01*
Y126998D01*
X316995Y127998D01*
X313996D01*
X109999Y126998D02*
X108999Y127998D01*
X107000D01*
X106000Y126998D01*
Y123000D01*
X107000Y122000D01*
X108999D01*
X109999Y123000D01*
Y124999D01*
X107999D01*
X111998Y122000D02*
Y127998D01*
X115997Y122000D01*
Y127998D01*
X117996D02*
Y122000D01*
X120995D01*
X121995Y123000D01*
Y126998D01*
X120995Y127998D01*
X117996D01*
X336999Y147998D02*
X334999Y146998D01*
X333000Y144999D01*
Y143000D01*
X334000Y142000D01*
X335999D01*
X336999Y143000D01*
Y143999D01*
X335999Y144999D01*
X333000D01*
X338998Y147998D02*
Y143999D01*
X340997Y142000D01*
X342997Y143999D01*
Y147998D01*
X300999Y166998D02*
X299999Y167998D01*
X298000D01*
X297000Y166998D01*
Y165999D01*
X298000Y164999D01*
X299999D01*
X300999Y163999D01*
Y163000D01*
X299999Y162000D01*
X298000D01*
X297000Y163000D01*
X306997Y167998D02*
X302998D01*
Y162000D01*
X306997D01*
X302998Y164999D02*
X304997D01*
X308996Y162000D02*
Y167998D01*
X311995D01*
X312995Y166998D01*
Y164999D01*
X311995Y163999D01*
X308996D01*
X310996D02*
X312995Y162000D01*
X314994Y167998D02*
Y163999D01*
X316993Y162000D01*
X318993Y163999D01*
Y167998D01*
X323991D02*
X321992D01*
X320992Y166998D01*
Y163000D01*
X321992Y162000D01*
X323991D01*
X324991Y163000D01*
Y166998D01*
X323991Y167998D01*
X109999Y166998D02*
X106000D01*
Y163999D01*
X107999Y164999D01*
X108999D01*
X109999Y163999D01*
Y162000D01*
X108999Y161000D01*
X107000D01*
X106000Y162000D01*
X111998Y166998D02*
Y162999D01*
X113997Y161000D01*
X115997Y162999D01*
Y166998D01*
X107000Y147998D02*
X108999D01*
X108000D01*
Y142000D01*
X107000D01*
X108999D01*
X111998D02*
Y147998D01*
X114997D01*
X115997Y146998D01*
Y144999D01*
X114997Y143999D01*
X111998D01*
X113998D02*
X115997Y142000D01*
X144999Y329998D02*
X143999Y330998D01*
X142000D01*
X141000Y329998D01*
Y328999D01*
X142000Y327999D01*
X143999D01*
X144999Y326999D01*
Y326000D01*
X143999Y325000D01*
X142000D01*
X141000Y326000D01*
X146998Y330998D02*
Y325000D01*
X148997Y326999D01*
X150997Y325000D01*
Y330998D01*
X152996D02*
X154996D01*
X153996D01*
Y325000D01*
X152996D01*
X154996D01*
X157994Y330998D02*
X161993D01*
X159994D01*
Y325000D01*
X167991Y329998D02*
X166992Y330998D01*
X164992D01*
X163993Y329998D01*
Y326000D01*
X164992Y325000D01*
X166992D01*
X167991Y326000D01*
X169991Y330998D02*
Y325000D01*
Y327999D01*
X173989D01*
Y330998D01*
Y325000D01*
X143999Y337998D02*
X142999Y338998D01*
X141000D01*
X140000Y337998D01*
Y336999D01*
X141000Y335999D01*
X142999D01*
X143999Y334999D01*
Y334000D01*
X142999Y333000D01*
X141000D01*
X140000Y334000D01*
X148997Y338998D02*
X146998D01*
X145998Y337998D01*
Y334000D01*
X146998Y333000D01*
X148997D01*
X149997Y334000D01*
Y337998D01*
X148997Y338998D01*
X151996D02*
Y333000D01*
X155995D01*
X161993Y338998D02*
X157994D01*
Y333000D01*
X161993D01*
X157994Y335999D02*
X159994D01*
X163992Y333000D02*
Y338998D01*
X167991Y333000D01*
Y338998D01*
X172989D02*
X170990D01*
X169990Y337998D01*
Y334000D01*
X170990Y333000D01*
X172989D01*
X173989Y334000D01*
Y337998D01*
X172989Y338998D01*
X175988D02*
X177988D01*
X176988D01*
Y333000D01*
X175988D01*
X177988D01*
X180987Y338998D02*
Y333000D01*
X183986D01*
X184985Y334000D01*
Y337998D01*
X183986Y338998D01*
X180987D01*
X335430Y368285D02*
X334858Y367999D01*
X334287Y367428D01*
X334001Y366857D01*
Y365714D01*
X334287Y365143D01*
X334858Y364571D01*
X335430Y364286D01*
X336286Y364000D01*
X337715D01*
X338572Y364286D01*
X339143Y364571D01*
X339714Y365143D01*
X340000Y365714D01*
Y366857D01*
X339714Y367428D01*
X339143Y367999D01*
X338572Y368285D01*
X337715D01*
Y366857D02*
Y368285D01*
X336001Y369656D02*
X340000D01*
X337715D02*
X336858Y369942D01*
X336286Y370513D01*
X336001Y371084D01*
Y371941D01*
Y375912D02*
X340000D01*
X336858D02*
X336286Y375340D01*
X336001Y374769D01*
Y373912D01*
X336286Y373341D01*
X336858Y372769D01*
X337715Y372484D01*
X338286D01*
X339143Y372769D01*
X339714Y373341D01*
X340000Y373912D01*
Y374769D01*
X339714Y375340D01*
X339143Y375912D01*
X336001Y377797D02*
X340000Y379511D01*
X336001Y381225D02*
X340000Y379511D01*
X341143Y378940D01*
X341714Y378368D01*
X342000Y377797D01*
Y377511D01*
X334001Y382225D02*
X340000D01*
X336858D02*
X336286Y382796D01*
X336001Y383367D01*
Y384224D01*
X336286Y384796D01*
X336858Y385367D01*
X337715Y385652D01*
X338286D01*
X339143Y385367D01*
X339714Y384796D01*
X340000Y384224D01*
Y383367D01*
X339714Y382796D01*
X339143Y382225D01*
X334001Y387509D02*
X334287Y387795D01*
X334001Y388081D01*
X333716Y387795D01*
X334001Y387509D01*
X336001Y387795D02*
X340000D01*
X337715Y389138D02*
Y392565D01*
X337143D01*
X336572Y392280D01*
X336286Y391994D01*
X336001Y391423D01*
Y390566D01*
X336286Y389994D01*
X336858Y389423D01*
X337715Y389138D01*
X338286D01*
X339143Y389423D01*
X339714Y389994D01*
X340000Y390566D01*
Y391423D01*
X339714Y391994D01*
X339143Y392565D01*
X334001Y393851D02*
X340000D01*
X334001Y399821D02*
X340000D01*
X334001D02*
X340000Y402106D01*
X334001Y404391D02*
X340000Y402106D01*
X334001Y404391D02*
X340000D01*
X336001Y407534D02*
X336286Y406962D01*
X336858Y406391D01*
X337715Y406105D01*
X338286D01*
X339143Y406391D01*
X339714Y406962D01*
X340000Y407534D01*
Y408391D01*
X339714Y408962D01*
X339143Y409533D01*
X338286Y409819D01*
X337715D01*
X336858Y409533D01*
X336286Y408962D01*
X336001Y408391D01*
Y407534D01*
Y411133D02*
X338857D01*
X339714Y411418D01*
X340000Y411990D01*
Y412847D01*
X339714Y413418D01*
X338857Y414275D01*
X336001D02*
X340000D01*
X336858Y418988D02*
X336286Y418703D01*
X336001Y417846D01*
Y416989D01*
X336286Y416132D01*
X336858Y415846D01*
X337429Y416132D01*
X337715Y416703D01*
X338000Y418131D01*
X338286Y418703D01*
X338857Y418988D01*
X339143D01*
X339714Y418703D01*
X340000Y417846D01*
Y416989D01*
X339714Y416132D01*
X339143Y415846D01*
X337715Y420245D02*
Y423673D01*
X337143D01*
X336572Y423387D01*
X336286Y423102D01*
X336001Y422530D01*
Y421673D01*
X336286Y421102D01*
X336858Y420531D01*
X337715Y420245D01*
X338286D01*
X339143Y420531D01*
X339714Y421102D01*
X340000Y421673D01*
Y422530D01*
X339714Y423102D01*
X339143Y423673D01*
X334001Y429672D02*
X340000D01*
X334001D02*
Y432243D01*
X334287Y433100D01*
X334573Y433385D01*
X335144Y433671D01*
X335715D01*
X336286Y433385D01*
X336572Y433100D01*
X336858Y432243D01*
Y429672D02*
Y432243D01*
X337143Y433100D01*
X337429Y433385D01*
X338000Y433671D01*
X338857D01*
X339429Y433385D01*
X339714Y433100D01*
X340000Y432243D01*
Y429672D01*
X336001Y436442D02*
X336286Y435870D01*
X336858Y435299D01*
X337715Y435013D01*
X338286D01*
X339143Y435299D01*
X339714Y435870D01*
X340000Y436442D01*
Y437299D01*
X339714Y437870D01*
X339143Y438441D01*
X338286Y438727D01*
X337715D01*
X336858Y438441D01*
X336286Y437870D01*
X336001Y437299D01*
Y436442D01*
Y443469D02*
X340000D01*
X336858D02*
X336286Y442897D01*
X336001Y442326D01*
Y441469D01*
X336286Y440898D01*
X336858Y440326D01*
X337715Y440041D01*
X338286D01*
X339143Y440326D01*
X339714Y440898D01*
X340000Y441469D01*
Y442326D01*
X339714Y442897D01*
X339143Y443469D01*
X336001Y445068D02*
X340000D01*
X337715D02*
X336858Y445354D01*
X336286Y445925D01*
X336001Y446497D01*
Y447354D01*
X334001Y451324D02*
X340000D01*
X336858D02*
X336286Y450753D01*
X336001Y450181D01*
Y449325D01*
X336286Y448753D01*
X336858Y448182D01*
X337715Y447896D01*
X338286D01*
X339143Y448182D01*
X339714Y448753D01*
X340000Y449325D01*
Y450181D01*
X339714Y450753D01*
X339143Y451324D01*
X335144Y457637D02*
X334858Y458208D01*
X334001Y459065D01*
X340000D01*
X339429Y462322D02*
X339714Y462036D01*
X340000Y462322D01*
X339714Y462607D01*
X339429Y462322D01*
X335144Y463921D02*
X334858Y464493D01*
X334001Y465350D01*
X340000D01*
X318285Y487998D02*
Y479000D01*
X318714Y487998D02*
X321285Y480285D01*
X318285Y487998D02*
X321285Y479000D01*
X324284Y487998D02*
X321285Y479000D01*
X324284Y487998D02*
Y479000D01*
X324713Y487998D02*
Y479000D01*
X317000Y487998D02*
X318714D01*
X324284D02*
X325998D01*
X317000Y479000D02*
X319571D01*
X322999D02*
X325998D01*
X328312Y487998D02*
Y479000D01*
X328740Y487998D02*
Y479000D01*
X327026Y487998D02*
X330026D01*
X327026Y479000D02*
X330026D01*
X334653Y487998D02*
Y479000D01*
X335082Y487998D02*
Y479000D01*
X332083Y487998D02*
X331654Y485427D01*
Y487998D01*
X338081D01*
Y485427D01*
X337653Y487998D01*
X333368Y479000D02*
X336367D01*
X150000Y379000D02*
X151666D01*
X150833D01*
Y383998D01*
X150000Y383165D01*
X157498Y379000D02*
X154165D01*
X157498Y382332D01*
Y383165D01*
X156665Y383998D01*
X154998D01*
X154165Y383165D01*
X159164Y383998D02*
Y380666D01*
X160830Y379000D01*
X162496Y380666D01*
Y383998D01*
X154332Y282165D02*
X153499Y282998D01*
X151833D01*
X151000Y282165D01*
Y278833D01*
X151833Y278000D01*
X153499D01*
X154332Y278833D01*
Y280499D01*
X152666D01*
X155998Y278000D02*
Y282998D01*
X159331Y278000D01*
Y282998D01*
X160997D02*
Y278000D01*
X163496D01*
X164329Y278833D01*
Y282165D01*
X163496Y282998D01*
X160997D01*
D41*
X232579Y170669D02*
G03*
X232579Y170669I-492J0D01*
G01*
D42*
X259425Y321882D02*
X262575D01*
X259425Y332118D02*
X262575D01*
X155500Y234000D02*
X194500D01*
X155500Y170500D02*
X194500D01*
X155500D02*
Y171500D01*
X194500Y170500D02*
Y171500D01*
Y233000D02*
Y234000D01*
X155500Y233000D02*
Y234000D01*
X271264Y271606D02*
Y272394D01*
X266736Y271606D02*
Y272394D01*
X304736Y249606D02*
Y250394D01*
X309264Y249606D02*
Y250394D01*
X275236Y152106D02*
Y152894D01*
X279764Y152106D02*
Y152894D01*
X229528Y186220D02*
X270472D01*
Y168110D02*
Y186220D01*
X229528Y168110D02*
X270472D01*
X229528D02*
Y186220D01*
Y184252D02*
X270472D01*
X142106Y205157D02*
X142894D01*
X142106Y199843D02*
X142894D01*
X144606Y262539D02*
X145394D01*
X144606Y267461D02*
X145394D01*
X303736Y281606D02*
Y282394D01*
X308264Y281606D02*
Y282394D01*
X280606Y350264D02*
X281394D01*
X280606Y345736D02*
X281394D01*
X293606Y418264D02*
X294394D01*
X293606Y413736D02*
X294394D01*
X293606Y407264D02*
X294394D01*
X293606Y402736D02*
X294394D01*
X293606Y462736D02*
X294394D01*
X293606Y467264D02*
X294394D01*
X293606Y429264D02*
X294394D01*
X293606Y424736D02*
X294394D01*
X293606Y443264D02*
X294394D01*
X293606Y438736D02*
X294394D01*
X293606Y451736D02*
X294394D01*
X293606Y456264D02*
X294394D01*
X293606Y473736D02*
X294394D01*
X293606Y478264D02*
X294394D01*
D43*
X282094Y249315D02*
Y288685D01*
Y249315D02*
X293906D01*
Y288685D01*
X282094D02*
X293906D01*
X282094Y204315D02*
Y243685D01*
Y204315D02*
X293906D01*
Y243685D01*
X282094D02*
X293906D01*
X255315Y124094D02*
X294685D01*
Y135906D01*
X255315D02*
X294685D01*
X255315Y124094D02*
Y135906D01*
X160315Y124094D02*
X199685D01*
Y135906D01*
X160315D02*
X199685D01*
X160315Y124094D02*
Y135906D01*
X222815Y249094D02*
X262185D01*
Y260906D01*
X222815D02*
X262185D01*
X222815Y249094D02*
Y260906D01*
X172815Y249094D02*
X212185D01*
Y260906D01*
X172815D02*
X212185D01*
X172815Y249094D02*
Y260906D01*
X151594Y285315D02*
Y324685D01*
Y285315D02*
X163406D01*
Y324685D01*
X151594D02*
X163406D01*
X151094Y338315D02*
Y377685D01*
Y338315D02*
X162906D01*
Y377685D01*
X151094D02*
X162906D01*
X282094Y296315D02*
Y335685D01*
Y296315D02*
X293906D01*
Y335685D01*
X282094D02*
X293906D01*
D44*
X308400Y115800D02*
X344600D01*
X308400D02*
X308500Y115900D01*
Y197500D01*
X344500D01*
X344600Y197400D01*
Y115800D02*
Y197400D01*
X284000Y146000D02*
X291000D01*
Y159000D01*
X284000D02*
X291000D01*
X284000Y146000D02*
Y159000D01*
X256500Y146000D02*
X263500D01*
Y159000D01*
X256500D02*
X263500D01*
X256500Y146000D02*
Y159000D01*
X105900Y115800D02*
X142100D01*
X105900D02*
X106000Y115900D01*
Y197500D01*
X142000D01*
X142100Y197400D01*
Y115800D02*
Y197400D01*
D45*
X165000Y160000D02*
X185000D01*
X165000Y150000D02*
Y160000D01*
Y150000D02*
X185000D01*
Y160000D01*
X182000Y382000D02*
X202000D01*
Y392000D01*
X182000D02*
X202000D01*
X182000Y382000D02*
Y392000D01*
D46*
X186500Y155025D02*
D03*
X180500Y386975D02*
D03*
D47*
X163504Y155025D02*
D03*
X203496Y386975D02*
D03*
D48*
X181250Y155000D02*
D03*
X185750Y387000D02*
D03*
M02*
