G04 Layer_Physical_Order=2*
G04 Layer_Color=11436288*
%FSLAX25Y25*%
%MOIN*%
G70*
G01*
G75*
%ADD19C,0.02500*%
%ADD20C,0.01200*%
%ADD22C,0.05000*%
%ADD24R,0.06299X0.06299*%
%ADD25C,0.06299*%
G04:AMPARAMS|DCode=26|XSize=196.85mil|YSize=118.11mil|CornerRadius=59.06mil|HoleSize=0mil|Usage=FLASHONLY|Rotation=0.000|XOffset=0mil|YOffset=0mil|HoleType=Round|Shape=RoundedRectangle|*
%AMROUNDEDRECTD26*
21,1,0.19685,0.00000,0,0,0.0*
21,1,0.07874,0.11811,0,0,0.0*
1,1,0.11811,0.03937,0.00000*
1,1,0.11811,-0.03937,0.00000*
1,1,0.11811,-0.03937,0.00000*
1,1,0.11811,0.03937,0.00000*
%
%ADD26ROUNDEDRECTD26*%
%ADD27C,0.10000*%
G04:AMPARAMS|DCode=28|XSize=196.85mil|YSize=118.11mil|CornerRadius=59.06mil|HoleSize=0mil|Usage=FLASHONLY|Rotation=90.000|XOffset=0mil|YOffset=0mil|HoleType=Round|Shape=RoundedRectangle|*
%AMROUNDEDRECTD28*
21,1,0.19685,0.00000,0,0,90.0*
21,1,0.07874,0.11811,0,0,90.0*
1,1,0.11811,0.00000,0.03937*
1,1,0.11811,0.00000,-0.03937*
1,1,0.11811,0.00000,-0.03937*
1,1,0.11811,0.00000,0.03937*
%
%ADD28ROUNDEDRECTD28*%
%ADD29R,0.06000X0.08000*%
%ADD30O,0.06000X0.08000*%
%ADD31C,0.06000*%
%ADD32C,0.07500*%
%ADD33R,0.06000X0.06000*%
%ADD34O,0.16000X0.08000*%
%ADD35C,0.30000*%
%ADD36C,0.06693*%
%ADD37R,0.06693X0.06693*%
%ADD38C,0.07200*%
%ADD39O,0.11000X0.08000*%
%ADD40C,0.05000*%
G36*
X342000Y352779D02*
X341500Y352679D01*
X341193Y353421D01*
X340423Y354423D01*
X339421Y355193D01*
X338253Y355677D01*
X337000Y355841D01*
X335747Y355677D01*
X334579Y355193D01*
X333577Y354423D01*
X332807Y353421D01*
X332324Y352253D01*
X332159Y351000D01*
X332324Y349747D01*
X332807Y348579D01*
X333577Y347577D01*
X334579Y346807D01*
X335747Y346323D01*
X336289Y346252D01*
Y345748D01*
X335747Y345676D01*
X334579Y345193D01*
X333577Y344423D01*
X332807Y343421D01*
X332324Y342253D01*
X332159Y341000D01*
X332324Y339747D01*
X332807Y338579D01*
X333577Y337577D01*
X334579Y336807D01*
X335747Y336323D01*
X336289Y336252D01*
Y335748D01*
X335747Y335677D01*
X334579Y335193D01*
X333577Y334423D01*
X332807Y333421D01*
X332324Y332253D01*
X332159Y331000D01*
X332324Y329747D01*
X332807Y328579D01*
X333577Y327577D01*
X334579Y326807D01*
X335747Y326324D01*
X336289Y326252D01*
Y325748D01*
X335747Y325676D01*
X334579Y325193D01*
X333577Y324423D01*
X332807Y323421D01*
X332324Y322253D01*
X332159Y321000D01*
X332324Y319747D01*
X332807Y318579D01*
X333577Y317577D01*
X334579Y316807D01*
X335747Y316323D01*
X336289Y316252D01*
Y315748D01*
X335747Y315676D01*
X334579Y315193D01*
X333577Y314423D01*
X332807Y313421D01*
X332324Y312253D01*
X332159Y311000D01*
X332324Y309747D01*
X332807Y308579D01*
X333577Y307577D01*
X334579Y306807D01*
X335747Y306324D01*
X336289Y306252D01*
Y305748D01*
X335747Y305677D01*
X334579Y305193D01*
X333577Y304423D01*
X332807Y303421D01*
X332324Y302253D01*
X332159Y301000D01*
X332324Y299747D01*
X332807Y298579D01*
X333577Y297577D01*
X334579Y296807D01*
X335747Y296323D01*
X337000Y296159D01*
X338253Y296323D01*
X339421Y296807D01*
X340423Y297577D01*
X341193Y298579D01*
X341500Y299321D01*
X342000Y299221D01*
Y287323D01*
X341500Y287224D01*
X341471Y287293D01*
X340743Y288243D01*
X339793Y288971D01*
X338687Y289429D01*
X337500Y289586D01*
X336313Y289429D01*
X335207Y288971D01*
X334257Y288243D01*
X333529Y287293D01*
X333365Y286898D01*
X332793Y286814D01*
X330931Y288676D01*
Y413700D01*
X330807Y414324D01*
X330453Y414853D01*
X328153Y417154D01*
X327624Y417507D01*
X327000Y417631D01*
X308329D01*
X308232Y417866D01*
X307639Y418639D01*
X306866Y419232D01*
X306631Y419329D01*
Y433324D01*
X311154Y437847D01*
X311507Y438376D01*
X311631Y439000D01*
Y443000D01*
X311507Y443624D01*
X311154Y444153D01*
X306631Y448676D01*
Y450671D01*
X306866Y450768D01*
X307639Y451361D01*
X308232Y452134D01*
X308605Y453034D01*
X308732Y454000D01*
X308605Y454966D01*
X308232Y455866D01*
X307639Y456639D01*
X306866Y457232D01*
X305966Y457605D01*
X305000Y457732D01*
X304034Y457605D01*
X303134Y457232D01*
X302361Y456639D01*
X301768Y455866D01*
X301395Y454966D01*
X301268Y454000D01*
X301395Y453034D01*
X301768Y452134D01*
X302361Y451361D01*
X303134Y450768D01*
X303369Y450671D01*
Y448000D01*
X303493Y447376D01*
X303847Y446846D01*
X305526Y445167D01*
X305292Y444693D01*
X305000Y444732D01*
X304034Y444605D01*
X303134Y444232D01*
X302361Y443639D01*
X301768Y442866D01*
X301671Y442631D01*
X299000D01*
X298376Y442507D01*
X297847Y442154D01*
X296847Y441153D01*
X296493Y440624D01*
X296369Y440000D01*
Y406000D01*
X296493Y405376D01*
X296847Y404846D01*
X297847Y403847D01*
X298376Y403493D01*
X299000Y403369D01*
X301671D01*
X301768Y403134D01*
X302361Y402361D01*
X303134Y401768D01*
X304034Y401395D01*
X305000Y401268D01*
X305966Y401395D01*
X306866Y401768D01*
X307639Y402361D01*
X308232Y403134D01*
X308329Y403369D01*
X316424D01*
X323418Y396375D01*
X323134Y395952D01*
X322857Y396066D01*
X321500Y396245D01*
X318500D01*
X317143Y396066D01*
X315878Y395542D01*
X314791Y394709D01*
X313958Y393622D01*
X313434Y392357D01*
X313255Y391000D01*
X313434Y389643D01*
X313958Y388378D01*
X314791Y387291D01*
X315878Y386458D01*
X316379Y386250D01*
Y385750D01*
X315878Y385542D01*
X314791Y384709D01*
X313958Y383622D01*
X313434Y382358D01*
X313255Y381000D01*
X313434Y379643D01*
X313958Y378378D01*
X314791Y377291D01*
X315878Y376458D01*
X316379Y376250D01*
Y375750D01*
X315878Y375542D01*
X314791Y374709D01*
X313958Y373622D01*
X313434Y372358D01*
X313255Y371000D01*
X313434Y369642D01*
X313958Y368378D01*
X314791Y367291D01*
X315878Y366458D01*
X316591Y366162D01*
Y365621D01*
X315978Y365368D01*
X314934Y364566D01*
X314132Y363522D01*
X313629Y362305D01*
X313523Y361500D01*
X320000D01*
Y360500D01*
X313523D01*
X313629Y359695D01*
X314132Y358478D01*
X314934Y357434D01*
X315978Y356632D01*
X316591Y356379D01*
Y355838D01*
X315878Y355542D01*
X314791Y354709D01*
X313958Y353622D01*
X313434Y352358D01*
X313255Y351000D01*
X313434Y349642D01*
X313958Y348378D01*
X314791Y347291D01*
X315878Y346458D01*
X316379Y346250D01*
Y345750D01*
X315878Y345542D01*
X314791Y344709D01*
X313958Y343622D01*
X313434Y342357D01*
X313255Y341000D01*
X313434Y339643D01*
X313958Y338378D01*
X314791Y337291D01*
X315878Y336458D01*
X316379Y336250D01*
Y335750D01*
X315878Y335542D01*
X314791Y334709D01*
X313958Y333622D01*
X313547Y332631D01*
X305329D01*
X305232Y332866D01*
X304639Y333639D01*
X303866Y334232D01*
X302966Y334605D01*
X302000Y334732D01*
X301034Y334605D01*
X300134Y334232D01*
X299361Y333639D01*
X298768Y332866D01*
X298395Y331966D01*
X298268Y331000D01*
X298395Y330034D01*
X298650Y329418D01*
Y329418D01*
X298653Y329412D01*
X298653Y329412D01*
X298653Y329412D01*
X298639Y329406D01*
X298634Y329403D01*
X298491Y329335D01*
X298491Y329335D01*
X298036Y329506D01*
X297874Y329809D01*
X296986Y330891D01*
X295904Y331779D01*
X294669Y332439D01*
X293330Y332845D01*
X291937Y332982D01*
X284063D01*
X282670Y332845D01*
X281331Y332439D01*
X280096Y331779D01*
X279014Y330891D01*
X278126Y329809D01*
X277467Y328575D01*
X277060Y327236D01*
X276923Y325843D01*
X277060Y324450D01*
X277467Y323110D01*
X278126Y321876D01*
X279014Y320794D01*
X280096Y319906D01*
X281331Y319246D01*
X282670Y318840D01*
X284063Y318703D01*
X291937D01*
X293330Y318840D01*
X294669Y319246D01*
X295904Y319906D01*
X296986Y320794D01*
X297874Y321876D01*
X298533Y323110D01*
X298940Y324450D01*
X299077Y325843D01*
X298940Y327236D01*
X298577Y328432D01*
X298734Y328897D01*
X298739Y328901D01*
X298878Y328990D01*
X298878Y328990D01*
X298878Y328990D01*
X298878Y328990D01*
X298881Y328987D01*
X298886Y328981D01*
X299361Y328361D01*
X300134Y327768D01*
X301034Y327395D01*
X302000Y327268D01*
X302966Y327395D01*
X303866Y327768D01*
X304639Y328361D01*
X305232Y329134D01*
X305329Y329369D01*
X313547D01*
X313958Y328378D01*
X314791Y327291D01*
X315878Y326458D01*
X316379Y326250D01*
Y325750D01*
X315878Y325542D01*
X314791Y324709D01*
X313958Y323622D01*
X313547Y322631D01*
X310329D01*
X310232Y322866D01*
X309639Y323639D01*
X308866Y324232D01*
X307966Y324605D01*
X307000Y324732D01*
X306034Y324605D01*
X305134Y324232D01*
X304361Y323639D01*
X303768Y322866D01*
X303395Y321966D01*
X303268Y321000D01*
X303395Y320034D01*
X303768Y319134D01*
X304361Y318361D01*
X305134Y317768D01*
X306034Y317395D01*
X307000Y317268D01*
X307966Y317395D01*
X308866Y317768D01*
X309639Y318361D01*
X310232Y319134D01*
X310329Y319369D01*
X313547D01*
X313958Y318378D01*
X314791Y317291D01*
X315878Y316458D01*
X316379Y316250D01*
Y315750D01*
X315878Y315542D01*
X314791Y314709D01*
X313958Y313622D01*
X313547Y312631D01*
X309300D01*
X308676Y312507D01*
X308147Y312154D01*
X302147Y306153D01*
X301793Y305624D01*
X301669Y305000D01*
Y256019D01*
X300337Y254688D01*
X300000Y254732D01*
X299034Y254605D01*
X298134Y254232D01*
X297361Y253639D01*
X296768Y252866D01*
X296395Y251966D01*
X296268Y251000D01*
X296395Y250034D01*
X296768Y249134D01*
X297361Y248361D01*
X298134Y247768D01*
X299034Y247395D01*
X300000Y247268D01*
X300966Y247395D01*
X301866Y247768D01*
X302639Y248361D01*
X303232Y249134D01*
X303605Y250034D01*
X303732Y251000D01*
X303605Y251966D01*
X303232Y252866D01*
X303187Y252924D01*
X304453Y254190D01*
X304807Y254719D01*
X304931Y255343D01*
Y304324D01*
X309976Y309369D01*
X313547D01*
X313958Y308378D01*
X314791Y307291D01*
X315878Y306458D01*
X316379Y306250D01*
Y305750D01*
X315878Y305542D01*
X314791Y304709D01*
X313958Y303622D01*
X313507Y302533D01*
X313376Y302507D01*
X312846Y302153D01*
X309347Y298654D01*
X308993Y298124D01*
X308869Y297500D01*
Y179343D01*
X308993Y178718D01*
X309347Y178189D01*
X319615Y167920D01*
X319244Y167227D01*
X318890Y166058D01*
X318770Y164843D01*
X318890Y163627D01*
X319244Y162459D01*
X319820Y161381D01*
X320595Y160437D01*
X321539Y159662D01*
X322616Y159087D01*
X323785Y158732D01*
X325000Y158613D01*
X326215Y158732D01*
X327384Y159087D01*
X328461Y159662D01*
X329405Y160437D01*
X330180Y161381D01*
X330756Y162459D01*
X331110Y163627D01*
X331230Y164843D01*
X331110Y166058D01*
X330756Y167227D01*
X330180Y168304D01*
X329405Y169248D01*
X328461Y170023D01*
X327384Y170598D01*
X326215Y170953D01*
X325000Y171073D01*
X323785Y170953D01*
X322616Y170598D01*
X321922Y170228D01*
X312131Y180018D01*
Y296824D01*
X313523Y298216D01*
X314146Y298132D01*
X314791Y297291D01*
X315878Y296458D01*
X317143Y295934D01*
X318500Y295755D01*
X321500D01*
X322857Y295934D01*
X324122Y296458D01*
X324969Y297107D01*
X325469Y296861D01*
Y289139D01*
X324969Y288893D01*
X324122Y289542D01*
X322857Y290066D01*
X321500Y290245D01*
X318500D01*
X317143Y290066D01*
X315878Y289542D01*
X314791Y288709D01*
X313958Y287622D01*
X313434Y286357D01*
X313255Y285000D01*
X313434Y283643D01*
X313958Y282378D01*
X314791Y281291D01*
X315878Y280458D01*
X316379Y280250D01*
Y279750D01*
X315878Y279542D01*
X314791Y278709D01*
X313958Y277622D01*
X313434Y276358D01*
X313255Y275000D01*
X313434Y273642D01*
X313958Y272378D01*
X314791Y271291D01*
X315878Y270458D01*
X316379Y270250D01*
Y269750D01*
X315878Y269542D01*
X314791Y268709D01*
X313958Y267622D01*
X313434Y266357D01*
X313255Y265000D01*
X313434Y263643D01*
X313958Y262378D01*
X314791Y261291D01*
X315878Y260458D01*
X316379Y260250D01*
Y259750D01*
X315878Y259542D01*
X314791Y258709D01*
X313958Y257622D01*
X313434Y256358D01*
X313255Y255000D01*
X313434Y253643D01*
X313958Y252378D01*
X314791Y251291D01*
X315878Y250458D01*
X316379Y250250D01*
Y249750D01*
X315878Y249542D01*
X314791Y248709D01*
X313958Y247622D01*
X313434Y246357D01*
X313255Y245000D01*
X313434Y243642D01*
X313958Y242378D01*
X314791Y241291D01*
X315878Y240458D01*
X316379Y240250D01*
Y239750D01*
X315878Y239542D01*
X314791Y238709D01*
X313958Y237622D01*
X313434Y236357D01*
X313255Y235000D01*
X313434Y233643D01*
X313958Y232378D01*
X314791Y231291D01*
X315878Y230458D01*
X316379Y230250D01*
Y229750D01*
X315878Y229542D01*
X314791Y228709D01*
X313958Y227622D01*
X313434Y226358D01*
X313255Y225000D01*
X313434Y223642D01*
X313958Y222378D01*
X314791Y221291D01*
X315878Y220458D01*
X316379Y220250D01*
Y219750D01*
X315878Y219542D01*
X314791Y218709D01*
X313958Y217622D01*
X313434Y216357D01*
X313255Y215000D01*
X313434Y213643D01*
X313958Y212378D01*
X314791Y211291D01*
X315878Y210458D01*
X317143Y209934D01*
X318500Y209755D01*
X321500D01*
X322857Y209934D01*
X324122Y210458D01*
X325209Y211291D01*
X326042Y212378D01*
X326566Y213643D01*
X326745Y215000D01*
X326566Y216357D01*
X326042Y217622D01*
X325209Y218709D01*
X324122Y219542D01*
X323621Y219750D01*
Y220250D01*
X324122Y220458D01*
X325209Y221291D01*
X326042Y222378D01*
X326566Y223642D01*
X326745Y225000D01*
X326566Y226358D01*
X326042Y227622D01*
X325209Y228709D01*
X324122Y229542D01*
X323621Y229750D01*
Y230250D01*
X324122Y230458D01*
X325209Y231291D01*
X326042Y232378D01*
X326566Y233643D01*
X326745Y235000D01*
X326566Y236357D01*
X326042Y237622D01*
X325209Y238709D01*
X324122Y239542D01*
X323621Y239750D01*
Y240250D01*
X324122Y240458D01*
X325209Y241291D01*
X326042Y242378D01*
X326566Y243642D01*
X326745Y245000D01*
X326566Y246357D01*
X326042Y247622D01*
X325209Y248709D01*
X324122Y249542D01*
X323621Y249750D01*
Y250250D01*
X324122Y250458D01*
X325209Y251291D01*
X326042Y252378D01*
X326516Y253520D01*
X327004Y253847D01*
X328254Y255097D01*
X328607Y255626D01*
X328731Y256250D01*
Y285608D01*
X329193Y285800D01*
X331147Y283846D01*
X331676Y283493D01*
X332300Y283369D01*
X333255D01*
X333529Y282707D01*
X334257Y281757D01*
X335207Y281029D01*
X336313Y280571D01*
X337500Y280414D01*
X338687Y280571D01*
X339793Y281029D01*
X340743Y281757D01*
X341471Y282707D01*
X341500Y282776D01*
X342000Y282677D01*
Y277323D01*
X341500Y277224D01*
X341471Y277293D01*
X340743Y278243D01*
X339793Y278971D01*
X338687Y279429D01*
X337500Y279586D01*
X336313Y279429D01*
X335207Y278971D01*
X334257Y278243D01*
X333529Y277293D01*
X333071Y276187D01*
X332914Y275000D01*
X333071Y273813D01*
X333529Y272707D01*
X334257Y271757D01*
X335207Y271029D01*
X336313Y270571D01*
X337500Y270414D01*
X338687Y270571D01*
X339793Y271029D01*
X340743Y271757D01*
X341471Y272707D01*
X341500Y272776D01*
X342000Y272677D01*
Y267323D01*
X341500Y267224D01*
X341471Y267293D01*
X340743Y268243D01*
X339793Y268971D01*
X338687Y269429D01*
X337500Y269586D01*
X336313Y269429D01*
X335207Y268971D01*
X334257Y268243D01*
X333529Y267293D01*
X333071Y266187D01*
X332914Y265000D01*
X333071Y263813D01*
X333529Y262707D01*
X334257Y261757D01*
X335207Y261029D01*
X336313Y260571D01*
X337500Y260414D01*
X338687Y260571D01*
X339793Y261029D01*
X340743Y261757D01*
X341471Y262707D01*
X341500Y262776D01*
X342000Y262677D01*
Y257323D01*
X341500Y257224D01*
X341471Y257293D01*
X340743Y258243D01*
X339793Y258971D01*
X338687Y259429D01*
X337500Y259586D01*
X336313Y259429D01*
X335207Y258971D01*
X334257Y258243D01*
X333529Y257293D01*
X333071Y256187D01*
X332914Y255000D01*
X333071Y253813D01*
X333529Y252707D01*
X334257Y251757D01*
X335207Y251029D01*
X336313Y250571D01*
X337500Y250414D01*
X338687Y250571D01*
X339793Y251029D01*
X340743Y251757D01*
X341471Y252707D01*
X341500Y252776D01*
X342000Y252677D01*
Y247323D01*
X341500Y247224D01*
X341471Y247293D01*
X340743Y248243D01*
X339793Y248971D01*
X338687Y249429D01*
X337500Y249586D01*
X336313Y249429D01*
X335207Y248971D01*
X334257Y248243D01*
X333529Y247293D01*
X333071Y246187D01*
X332914Y245000D01*
X333071Y243813D01*
X333529Y242707D01*
X334257Y241757D01*
X335207Y241029D01*
X336313Y240571D01*
X337500Y240414D01*
X338687Y240571D01*
X339793Y241029D01*
X340743Y241757D01*
X341471Y242707D01*
X341500Y242776D01*
X342000Y242677D01*
Y237323D01*
X341500Y237224D01*
X341471Y237293D01*
X340743Y238243D01*
X339793Y238971D01*
X338687Y239429D01*
X337500Y239586D01*
X336313Y239429D01*
X335207Y238971D01*
X334257Y238243D01*
X333529Y237293D01*
X333071Y236187D01*
X332914Y235000D01*
X333071Y233813D01*
X333529Y232707D01*
X334257Y231757D01*
X335207Y231029D01*
X336313Y230571D01*
X337500Y230414D01*
X338687Y230571D01*
X339793Y231029D01*
X340743Y231757D01*
X341471Y232707D01*
X341500Y232776D01*
X342000Y232677D01*
Y227323D01*
X341500Y227224D01*
X341471Y227293D01*
X340743Y228243D01*
X339793Y228971D01*
X338687Y229429D01*
X337500Y229586D01*
X336313Y229429D01*
X335207Y228971D01*
X334257Y228243D01*
X333529Y227293D01*
X333071Y226187D01*
X332914Y225000D01*
X333071Y223813D01*
X333529Y222707D01*
X334257Y221757D01*
X335207Y221029D01*
X336313Y220571D01*
X337500Y220414D01*
X338687Y220571D01*
X339793Y221029D01*
X340743Y221757D01*
X341471Y222707D01*
X341500Y222776D01*
X342000Y222677D01*
Y219547D01*
X332954D01*
Y210454D01*
X342000D01*
Y118000D01*
X108000D01*
X107000Y119000D01*
Y283738D01*
X107500Y283771D01*
X107590Y283086D01*
X107943Y282235D01*
X108504Y281504D01*
X117504Y272504D01*
X118235Y271943D01*
X119086Y271590D01*
X120000Y271470D01*
X139538D01*
X143470Y267538D01*
Y164000D01*
X143590Y163086D01*
X143943Y162235D01*
X144504Y161504D01*
X152945Y153063D01*
X153176Y152504D01*
X153970Y151470D01*
X155004Y150676D01*
X156208Y150177D01*
X157500Y150007D01*
X158792Y150177D01*
X159996Y150676D01*
X161030Y151470D01*
X161824Y152504D01*
X162323Y153708D01*
X162493Y155000D01*
X162323Y156292D01*
X161824Y157496D01*
X161030Y158530D01*
X159996Y159324D01*
X158792Y159823D01*
X157500Y159993D01*
X156208Y159823D01*
X156181Y159811D01*
X150530Y165462D01*
Y269000D01*
X150410Y269914D01*
X150057Y270765D01*
X149496Y271496D01*
X143496Y277496D01*
X142765Y278057D01*
X141914Y278410D01*
X141000Y278530D01*
X121462D01*
X114530Y285462D01*
Y359538D01*
X119305Y364312D01*
X146893D01*
X147126Y363876D01*
X148014Y362794D01*
X149096Y361906D01*
X150331Y361246D01*
X151670Y360840D01*
X153063Y360703D01*
X160937D01*
X162330Y360840D01*
X163669Y361246D01*
X164904Y361906D01*
X165986Y362794D01*
X166874Y363876D01*
X167533Y365110D01*
X167940Y366450D01*
X168077Y367843D01*
X167940Y369235D01*
X167533Y370575D01*
X166874Y371809D01*
X165986Y372891D01*
X164904Y373779D01*
X163669Y374439D01*
X162330Y374845D01*
X160937Y374983D01*
X153063D01*
X151670Y374845D01*
X150331Y374439D01*
X149096Y373779D01*
X148014Y372891D01*
X147126Y371809D01*
X146893Y371373D01*
X117843D01*
X116929Y371252D01*
X116077Y370900D01*
X115346Y370339D01*
X108504Y363496D01*
X107943Y362765D01*
X107590Y361914D01*
X107500Y361229D01*
X107000Y361262D01*
Y490000D01*
X342000D01*
Y352779D01*
D02*
G37*
%LPC*%
G36*
X174500Y174500D02*
X170880D01*
X170957Y173917D01*
X171375Y172907D01*
X172040Y172040D01*
X172907Y171375D01*
X173917Y170957D01*
X174500Y170880D01*
Y174500D01*
D02*
G37*
G36*
X189350Y179350D02*
X180650D01*
Y170650D01*
X189350D01*
Y179350D01*
D02*
G37*
G36*
X165000Y179387D02*
X163865Y179238D01*
X162806Y178799D01*
X161898Y178102D01*
X161201Y177194D01*
X160762Y176136D01*
X160613Y175000D01*
X160762Y173864D01*
X161201Y172806D01*
X161898Y171898D01*
X162806Y171201D01*
X163865Y170762D01*
X165000Y170613D01*
X166136Y170762D01*
X167194Y171201D01*
X168102Y171898D01*
X168799Y172806D01*
X169238Y173864D01*
X169387Y175000D01*
X169238Y176136D01*
X168799Y177194D01*
X168102Y178102D01*
X167194Y178799D01*
X166136Y179238D01*
X165000Y179387D01*
D02*
G37*
G36*
X179120Y174500D02*
X175500D01*
Y170880D01*
X176083Y170957D01*
X177093Y171375D01*
X177960Y172040D01*
X178625Y172907D01*
X179043Y173917D01*
X179120Y174500D01*
D02*
G37*
G36*
X175500Y179120D02*
Y175500D01*
X179120D01*
X179043Y176083D01*
X178625Y177093D01*
X177960Y177960D01*
X177093Y178625D01*
X176083Y179043D01*
X175500Y179120D01*
D02*
G37*
G36*
X174500D02*
X173917Y179043D01*
X172907Y178625D01*
X172040Y177960D01*
X171375Y177093D01*
X170957Y176083D01*
X170880Y175500D01*
X174500D01*
Y179120D01*
D02*
G37*
G36*
X287000Y198732D02*
X286034Y198605D01*
X285134Y198232D01*
X284361Y197639D01*
X283768Y196866D01*
X283395Y195966D01*
X283268Y195000D01*
X283395Y194034D01*
X283768Y193134D01*
X284361Y192361D01*
X285134Y191768D01*
X285369Y191671D01*
Y179329D01*
X285134Y179232D01*
X284361Y178639D01*
X283768Y177866D01*
X283395Y176966D01*
X283268Y176000D01*
X283395Y175034D01*
X283768Y174134D01*
X284361Y173361D01*
X285134Y172768D01*
X286034Y172395D01*
X287000Y172268D01*
X287966Y172395D01*
X288866Y172768D01*
X289639Y173361D01*
X290232Y174134D01*
X290605Y175034D01*
X290732Y176000D01*
X290605Y176966D01*
X290232Y177866D01*
X289639Y178639D01*
X288866Y179232D01*
X288631Y179329D01*
Y191671D01*
X288866Y191768D01*
X289639Y192361D01*
X290232Y193134D01*
X290605Y194034D01*
X290732Y195000D01*
X290605Y195966D01*
X290232Y196866D01*
X289639Y197639D01*
X288866Y198232D01*
X287966Y198605D01*
X287000Y198732D01*
D02*
G37*
G36*
X220500Y170464D02*
Y167500D01*
X223464D01*
X223410Y167914D01*
X223057Y168765D01*
X222496Y169496D01*
X221765Y170057D01*
X220914Y170410D01*
X220500Y170464D01*
D02*
G37*
G36*
X219500D02*
X219086Y170410D01*
X218235Y170057D01*
X217504Y169496D01*
X216943Y168765D01*
X216590Y167914D01*
X216536Y167500D01*
X219500D01*
Y170464D01*
D02*
G37*
G36*
X223464Y166500D02*
X220500D01*
Y163536D01*
X220914Y163590D01*
X221765Y163943D01*
X222496Y164504D01*
X223057Y165235D01*
X223410Y166086D01*
X223464Y166500D01*
D02*
G37*
G36*
X250000Y180236D02*
X248904Y180092D01*
X247882Y179669D01*
X247005Y178996D01*
X246331Y178118D01*
X245908Y177096D01*
X245764Y176000D01*
Y174000D01*
X245908Y172904D01*
X246331Y171882D01*
X247005Y171004D01*
X247882Y170331D01*
X248904Y169908D01*
X250000Y169764D01*
X251096Y169908D01*
X252118Y170331D01*
X252995Y171004D01*
X253669Y171882D01*
X254092Y172904D01*
X254236Y174000D01*
Y176000D01*
X254092Y177096D01*
X253669Y178118D01*
X252995Y178996D01*
X252118Y179669D01*
X251096Y180092D01*
X250000Y180236D01*
D02*
G37*
G36*
X219500Y166500D02*
X216536D01*
X216590Y166086D01*
X216943Y165235D01*
X217504Y164504D01*
X218235Y163943D01*
X219086Y163590D01*
X219500Y163536D01*
Y166500D01*
D02*
G37*
G36*
X244200Y180200D02*
X235800D01*
Y169800D01*
X244200D01*
Y180200D01*
D02*
G37*
G36*
X260000Y180236D02*
X258904Y180092D01*
X257882Y179669D01*
X257004Y178996D01*
X256331Y178118D01*
X255908Y177096D01*
X255764Y176000D01*
Y174000D01*
X255908Y172904D01*
X256331Y171882D01*
X257004Y171004D01*
X257882Y170331D01*
X258904Y169908D01*
X260000Y169764D01*
X261096Y169908D01*
X262118Y170331D01*
X262996Y171004D01*
X263669Y171882D01*
X264092Y172904D01*
X264236Y174000D01*
Y176000D01*
X264092Y177096D01*
X263669Y178118D01*
X262996Y178996D01*
X262118Y179669D01*
X261096Y180092D01*
X260000Y180236D01*
D02*
G37*
G36*
X122500Y190758D02*
X121285Y190638D01*
X120116Y190283D01*
X119039Y189708D01*
X118095Y188933D01*
X117320Y187989D01*
X116744Y186912D01*
X116390Y185743D01*
X116270Y184528D01*
X116390Y183312D01*
X116744Y182143D01*
X117320Y181066D01*
X118095Y180122D01*
X119039Y179348D01*
X120116Y178772D01*
X121285Y178417D01*
X122500Y178298D01*
X123715Y178417D01*
X124884Y178772D01*
X125961Y179348D01*
X126905Y180122D01*
X127680Y181066D01*
X128256Y182143D01*
X128610Y183312D01*
X128730Y184528D01*
X128610Y185743D01*
X128256Y186912D01*
X127680Y187989D01*
X126905Y188933D01*
X125961Y189708D01*
X124884Y190283D01*
X123715Y190638D01*
X122500Y190758D01*
D02*
G37*
G36*
X201843Y254500D02*
X195404D01*
Y251063D01*
X195537Y249709D01*
X195932Y248408D01*
X196573Y247208D01*
X197436Y246156D01*
X198487Y245293D01*
X199687Y244652D01*
X200989Y244257D01*
X201843Y244173D01*
Y254500D01*
D02*
G37*
G36*
X232657Y266077D02*
X231264Y265940D01*
X229925Y265533D01*
X228691Y264874D01*
X227609Y263986D01*
X226721Y262904D01*
X226061Y261669D01*
X225655Y260330D01*
X225518Y258937D01*
Y251063D01*
X225655Y249670D01*
X226061Y248331D01*
X226721Y247096D01*
X227609Y246014D01*
X228691Y245126D01*
X229925Y244467D01*
X231264Y244060D01*
X232657Y243923D01*
X234050Y244060D01*
X235390Y244467D01*
X236624Y245126D01*
X237706Y246014D01*
X238594Y247096D01*
X239254Y248331D01*
X239660Y249670D01*
X239797Y251063D01*
Y258937D01*
X239660Y260330D01*
X239254Y261669D01*
X238594Y262904D01*
X237706Y263986D01*
X236624Y264874D01*
X235390Y265533D01*
X234050Y265940D01*
X232657Y266077D01*
D02*
G37*
G36*
X182657D02*
X181264Y265940D01*
X179925Y265533D01*
X178691Y264874D01*
X177609Y263986D01*
X176721Y262904D01*
X176061Y261669D01*
X175655Y260330D01*
X175517Y258937D01*
Y251063D01*
X175655Y249670D01*
X176061Y248331D01*
X176721Y247096D01*
X177609Y246014D01*
X178691Y245126D01*
X179925Y244467D01*
X181264Y244060D01*
X182657Y243923D01*
X184050Y244060D01*
X185390Y244467D01*
X186624Y245126D01*
X187706Y246014D01*
X188594Y247096D01*
X189254Y248331D01*
X189660Y249670D01*
X189797Y251063D01*
Y258937D01*
X189660Y260330D01*
X189254Y261669D01*
X188594Y262904D01*
X187706Y263986D01*
X186624Y264874D01*
X185390Y265533D01*
X184050Y265940D01*
X182657Y266077D01*
D02*
G37*
G36*
X209281Y254500D02*
X202843D01*
Y244173D01*
X203696Y244257D01*
X204998Y244652D01*
X206198Y245293D01*
X207249Y246156D01*
X208112Y247208D01*
X208753Y248408D01*
X209148Y249709D01*
X209281Y251063D01*
Y254500D01*
D02*
G37*
G36*
X287500Y258657D02*
X277173D01*
X277257Y257804D01*
X277652Y256502D01*
X278293Y255302D01*
X279156Y254251D01*
X280208Y253388D01*
X281408Y252747D01*
X282709Y252352D01*
X284063Y252219D01*
X287500D01*
Y258657D01*
D02*
G37*
G36*
X259281Y254500D02*
X252843D01*
Y244173D01*
X253696Y244257D01*
X254998Y244652D01*
X256198Y245293D01*
X257249Y246156D01*
X258112Y247208D01*
X258753Y248408D01*
X259148Y249709D01*
X259281Y251063D01*
Y254500D01*
D02*
G37*
G36*
X251843D02*
X245404D01*
Y251063D01*
X245537Y249709D01*
X245932Y248408D01*
X246573Y247208D01*
X247436Y246156D01*
X248487Y245293D01*
X249687Y244652D01*
X250989Y244257D01*
X251843Y244173D01*
Y254500D01*
D02*
G37*
G36*
X291937Y240983D02*
X284063D01*
X282670Y240845D01*
X281331Y240439D01*
X280096Y239779D01*
X279014Y238891D01*
X278126Y237809D01*
X277467Y236575D01*
X277060Y235236D01*
X276923Y233843D01*
X277060Y232450D01*
X277467Y231110D01*
X278126Y229876D01*
X279014Y228794D01*
X280096Y227906D01*
X281331Y227246D01*
X282670Y226840D01*
X284063Y226703D01*
X291937D01*
X293330Y226840D01*
X294669Y227246D01*
X295904Y227906D01*
X296986Y228794D01*
X297874Y229876D01*
X298533Y231110D01*
X298940Y232450D01*
X299077Y233843D01*
X298940Y235236D01*
X298533Y236575D01*
X297874Y237809D01*
X296986Y238891D01*
X295904Y239779D01*
X294669Y240439D01*
X293330Y240845D01*
X291937Y240983D01*
D02*
G37*
G36*
X298827Y213657D02*
X288500D01*
Y207219D01*
X291937D01*
X293291Y207352D01*
X294592Y207747D01*
X295792Y208388D01*
X296844Y209251D01*
X297707Y210302D01*
X298348Y211502D01*
X298743Y212804D01*
X298827Y213657D01*
D02*
G37*
G36*
X287500D02*
X277173D01*
X277257Y212804D01*
X277652Y211502D01*
X278293Y210302D01*
X279156Y209251D01*
X280208Y208388D01*
X281408Y207747D01*
X282709Y207352D01*
X284063Y207219D01*
X287500D01*
Y213657D01*
D02*
G37*
G36*
X325000Y190758D02*
X323785Y190638D01*
X322616Y190283D01*
X321539Y189708D01*
X320595Y188933D01*
X319820Y187989D01*
X319244Y186912D01*
X318890Y185743D01*
X318770Y184528D01*
X318890Y183312D01*
X319244Y182143D01*
X319820Y181066D01*
X320595Y180122D01*
X321539Y179348D01*
X322616Y178772D01*
X323785Y178417D01*
X325000Y178298D01*
X326215Y178417D01*
X327384Y178772D01*
X328461Y179348D01*
X329405Y180122D01*
X330180Y181066D01*
X330756Y182143D01*
X331110Y183312D01*
X331230Y184528D01*
X331110Y185743D01*
X330756Y186912D01*
X330180Y187989D01*
X329405Y188933D01*
X328461Y189708D01*
X327384Y190283D01*
X326215Y190638D01*
X325000Y190758D01*
D02*
G37*
G36*
X131500Y270245D02*
X128500D01*
X127143Y270066D01*
X125878Y269542D01*
X124791Y268709D01*
X123958Y267622D01*
X123434Y266357D01*
X123255Y265000D01*
X123434Y263643D01*
X123958Y262378D01*
X124791Y261291D01*
X125878Y260458D01*
X126379Y260250D01*
Y259750D01*
X125878Y259542D01*
X124791Y258709D01*
X123958Y257622D01*
X123434Y256358D01*
X123255Y255000D01*
X123434Y253643D01*
X123958Y252378D01*
X124791Y251291D01*
X125878Y250458D01*
X126379Y250250D01*
Y249750D01*
X125878Y249542D01*
X124791Y248709D01*
X123958Y247622D01*
X123434Y246357D01*
X123255Y245000D01*
X123434Y243642D01*
X123958Y242378D01*
X124791Y241291D01*
X125878Y240458D01*
X126379Y240250D01*
Y239750D01*
X125878Y239542D01*
X124791Y238709D01*
X123958Y237622D01*
X123434Y236357D01*
X123255Y235000D01*
X123434Y233643D01*
X123958Y232378D01*
X124791Y231291D01*
X125878Y230458D01*
X126379Y230250D01*
Y229750D01*
X125878Y229542D01*
X124791Y228709D01*
X123958Y227622D01*
X123434Y226358D01*
X123255Y225000D01*
X123434Y223642D01*
X123958Y222378D01*
X124791Y221291D01*
X125878Y220458D01*
X126379Y220250D01*
Y219750D01*
X125878Y219542D01*
X124791Y218709D01*
X123958Y217622D01*
X123434Y216357D01*
X123255Y215000D01*
X123434Y213643D01*
X123958Y212378D01*
X124791Y211291D01*
X125878Y210458D01*
X127143Y209934D01*
X128500Y209755D01*
X131500D01*
X132858Y209934D01*
X134122Y210458D01*
X135209Y211291D01*
X136042Y212378D01*
X136566Y213643D01*
X136745Y215000D01*
X136566Y216357D01*
X136042Y217622D01*
X135209Y218709D01*
X134122Y219542D01*
X133621Y219750D01*
Y220250D01*
X134122Y220458D01*
X135209Y221291D01*
X136042Y222378D01*
X136566Y223642D01*
X136745Y225000D01*
X136566Y226358D01*
X136042Y227622D01*
X135209Y228709D01*
X134122Y229542D01*
X133621Y229750D01*
Y230250D01*
X134122Y230458D01*
X135209Y231291D01*
X136042Y232378D01*
X136566Y233643D01*
X136745Y235000D01*
X136566Y236357D01*
X136042Y237622D01*
X135209Y238709D01*
X134122Y239542D01*
X133621Y239750D01*
Y240250D01*
X134122Y240458D01*
X135209Y241291D01*
X136042Y242378D01*
X136566Y243642D01*
X136745Y245000D01*
X136566Y246357D01*
X136042Y247622D01*
X135209Y248709D01*
X134122Y249542D01*
X133621Y249750D01*
Y250250D01*
X134122Y250458D01*
X135209Y251291D01*
X136042Y252378D01*
X136566Y253643D01*
X136745Y255000D01*
X136566Y256358D01*
X136042Y257622D01*
X135209Y258709D01*
X134122Y259542D01*
X133621Y259750D01*
Y260250D01*
X134122Y260458D01*
X135209Y261291D01*
X136042Y262378D01*
X136566Y263643D01*
X136745Y265000D01*
X136566Y266357D01*
X136042Y267622D01*
X135209Y268709D01*
X134122Y269542D01*
X132858Y270066D01*
X131500Y270245D01*
D02*
G37*
G36*
X291937Y221096D02*
X288500D01*
Y214657D01*
X298827D01*
X298743Y215511D01*
X298348Y216813D01*
X297707Y218012D01*
X296844Y219064D01*
X295792Y219927D01*
X294592Y220568D01*
X293291Y220963D01*
X291937Y221096D01*
D02*
G37*
G36*
X287500D02*
X284063D01*
X282709Y220963D01*
X281408Y220568D01*
X280208Y219927D01*
X279156Y219064D01*
X278293Y218012D01*
X277652Y216813D01*
X277257Y215511D01*
X277173Y214657D01*
X287500D01*
Y221096D01*
D02*
G37*
G36*
X112500Y269841D02*
X111247Y269676D01*
X110079Y269193D01*
X109077Y268423D01*
X108307Y267421D01*
X107824Y266253D01*
X107659Y265000D01*
X107824Y263747D01*
X108307Y262579D01*
X109077Y261577D01*
X110079Y260807D01*
X111247Y260324D01*
X111789Y260252D01*
Y259748D01*
X111247Y259677D01*
X110079Y259193D01*
X109077Y258423D01*
X108307Y257421D01*
X107824Y256253D01*
X107659Y255000D01*
X107824Y253747D01*
X108307Y252579D01*
X109077Y251577D01*
X110079Y250807D01*
X111247Y250324D01*
X111789Y250252D01*
Y249748D01*
X111247Y249676D01*
X110079Y249193D01*
X109077Y248423D01*
X108307Y247421D01*
X107824Y246253D01*
X107659Y245000D01*
X107824Y243747D01*
X108307Y242579D01*
X109077Y241577D01*
X110079Y240807D01*
X111247Y240323D01*
X111789Y240252D01*
Y239748D01*
X111247Y239676D01*
X110079Y239193D01*
X109077Y238423D01*
X108307Y237421D01*
X107824Y236253D01*
X107659Y235000D01*
X107824Y233747D01*
X108307Y232579D01*
X109077Y231577D01*
X110079Y230807D01*
X111247Y230324D01*
X111789Y230252D01*
Y229748D01*
X111247Y229677D01*
X110079Y229193D01*
X109077Y228423D01*
X108307Y227421D01*
X107824Y226253D01*
X107659Y225000D01*
X107824Y223747D01*
X108307Y222579D01*
X109077Y221577D01*
X110079Y220807D01*
X111247Y220323D01*
X111789Y220252D01*
Y219748D01*
X111247Y219676D01*
X110079Y219193D01*
X109077Y218423D01*
X108307Y217421D01*
X107824Y216253D01*
X107659Y215000D01*
X107824Y213747D01*
X108307Y212579D01*
X109077Y211577D01*
X110079Y210807D01*
X111247Y210324D01*
X112500Y210159D01*
X113753Y210324D01*
X114921Y210807D01*
X115923Y211577D01*
X116693Y212579D01*
X117176Y213747D01*
X117341Y215000D01*
X117176Y216253D01*
X116693Y217421D01*
X115923Y218423D01*
X114921Y219193D01*
X113753Y219676D01*
X113211Y219748D01*
Y220252D01*
X113753Y220323D01*
X114921Y220807D01*
X115923Y221577D01*
X116693Y222579D01*
X117176Y223747D01*
X117341Y225000D01*
X117176Y226253D01*
X116693Y227421D01*
X115923Y228423D01*
X114921Y229193D01*
X113753Y229677D01*
X113211Y229748D01*
Y230252D01*
X113753Y230324D01*
X114921Y230807D01*
X115923Y231577D01*
X116693Y232579D01*
X117176Y233747D01*
X117341Y235000D01*
X117176Y236253D01*
X116693Y237421D01*
X115923Y238423D01*
X114921Y239193D01*
X113753Y239676D01*
X113211Y239748D01*
Y240252D01*
X113753Y240323D01*
X114921Y240807D01*
X115923Y241577D01*
X116693Y242579D01*
X117176Y243747D01*
X117341Y245000D01*
X117176Y246253D01*
X116693Y247421D01*
X115923Y248423D01*
X114921Y249193D01*
X113753Y249676D01*
X113211Y249748D01*
Y250252D01*
X113753Y250324D01*
X114921Y250807D01*
X115923Y251577D01*
X116693Y252579D01*
X117176Y253747D01*
X117341Y255000D01*
X117176Y256253D01*
X116693Y257421D01*
X115923Y258423D01*
X114921Y259193D01*
X113753Y259677D01*
X113211Y259748D01*
Y260252D01*
X113753Y260324D01*
X114921Y260807D01*
X115923Y261577D01*
X116693Y262579D01*
X117176Y263747D01*
X117341Y265000D01*
X117176Y266253D01*
X116693Y267421D01*
X115923Y268423D01*
X114921Y269193D01*
X113753Y269676D01*
X112500Y269841D01*
D02*
G37*
G36*
X225248Y126862D02*
X221779D01*
X221851Y126318D01*
X222254Y125345D01*
X222895Y124509D01*
X223731Y123868D01*
X224704Y123465D01*
X225248Y123393D01*
Y126862D01*
D02*
G37*
G36*
X330980Y124972D02*
X325500D01*
Y119493D01*
X326176Y119559D01*
X327307Y119902D01*
X328349Y120459D01*
X329263Y121209D01*
X330013Y122123D01*
X330570Y123165D01*
X330913Y124296D01*
X330980Y124972D01*
D02*
G37*
G36*
X324500D02*
X319020D01*
X319087Y124296D01*
X319430Y123165D01*
X319987Y122123D01*
X320737Y121209D01*
X321651Y120459D01*
X322693Y119902D01*
X323824Y119559D01*
X324500Y119493D01*
Y124972D01*
D02*
G37*
G36*
X229717Y126862D02*
X226248D01*
Y123393D01*
X226792Y123465D01*
X227765Y123868D01*
X228601Y124509D01*
X229242Y125345D01*
X229645Y126318D01*
X229717Y126862D01*
D02*
G37*
G36*
X324500Y131452D02*
X323824Y131386D01*
X322693Y131043D01*
X321651Y130485D01*
X320737Y129736D01*
X319987Y128822D01*
X319430Y127780D01*
X319087Y126649D01*
X319020Y125972D01*
X324500D01*
Y131452D01*
D02*
G37*
G36*
X123000D02*
Y125972D01*
X128480D01*
X128413Y126649D01*
X128070Y127780D01*
X127513Y128822D01*
X126763Y129736D01*
X125849Y130485D01*
X124807Y131043D01*
X123676Y131386D01*
X123000Y131452D01*
D02*
G37*
G36*
X122000D02*
X121324Y131386D01*
X120193Y131043D01*
X119150Y130485D01*
X118237Y129736D01*
X117487Y128822D01*
X116930Y127780D01*
X116587Y126649D01*
X116520Y125972D01*
X122000D01*
Y131452D01*
D02*
G37*
G36*
X128480Y124972D02*
X123000D01*
Y119493D01*
X123676Y119559D01*
X124807Y119902D01*
X125849Y120459D01*
X126763Y121209D01*
X127513Y122123D01*
X128070Y123165D01*
X128413Y124296D01*
X128480Y124972D01*
D02*
G37*
G36*
X189343Y129500D02*
X182904D01*
Y126063D01*
X183037Y124709D01*
X183432Y123408D01*
X184073Y122208D01*
X184936Y121156D01*
X185987Y120293D01*
X187187Y119652D01*
X188489Y119257D01*
X189343Y119173D01*
Y129500D01*
D02*
G37*
G36*
X265157Y141077D02*
X263765Y140940D01*
X262425Y140533D01*
X261191Y139874D01*
X260109Y138986D01*
X259221Y137904D01*
X258561Y136669D01*
X258155Y135330D01*
X258017Y133937D01*
Y126063D01*
X258155Y124670D01*
X258561Y123331D01*
X259221Y122096D01*
X260109Y121014D01*
X261191Y120126D01*
X262425Y119467D01*
X263765Y119060D01*
X265157Y118923D01*
X266550Y119060D01*
X267890Y119467D01*
X269124Y120126D01*
X270206Y121014D01*
X271094Y122096D01*
X271754Y123331D01*
X272160Y124670D01*
X272297Y126063D01*
Y133937D01*
X272160Y135330D01*
X271754Y136669D01*
X271094Y137904D01*
X270206Y138986D01*
X269124Y139874D01*
X267890Y140533D01*
X266550Y140940D01*
X265157Y141077D01*
D02*
G37*
G36*
X170157D02*
X168764Y140940D01*
X167425Y140533D01*
X166191Y139874D01*
X165109Y138986D01*
X164221Y137904D01*
X163561Y136669D01*
X163155Y135330D01*
X163017Y133937D01*
Y126063D01*
X163155Y124670D01*
X163561Y123331D01*
X164221Y122096D01*
X165109Y121014D01*
X166191Y120126D01*
X167425Y119467D01*
X168764Y119060D01*
X170157Y118923D01*
X171550Y119060D01*
X172890Y119467D01*
X174124Y120126D01*
X175206Y121014D01*
X176094Y122096D01*
X176754Y123331D01*
X177160Y124670D01*
X177297Y126063D01*
Y133937D01*
X177160Y135330D01*
X176754Y136669D01*
X176094Y137904D01*
X175206Y138986D01*
X174124Y139874D01*
X172890Y140533D01*
X171550Y140940D01*
X170157Y141077D01*
D02*
G37*
G36*
X196782Y129500D02*
X190343D01*
Y119173D01*
X191196Y119257D01*
X192498Y119652D01*
X193698Y120293D01*
X194749Y121156D01*
X195612Y122208D01*
X196253Y123408D01*
X196648Y124709D01*
X196782Y126063D01*
Y129500D01*
D02*
G37*
G36*
X122000Y124972D02*
X116520D01*
X116587Y124296D01*
X116930Y123165D01*
X117487Y122123D01*
X118237Y121209D01*
X119150Y120459D01*
X120193Y119902D01*
X121324Y119559D01*
X122000Y119493D01*
Y124972D01*
D02*
G37*
G36*
X291781Y129500D02*
X285343D01*
Y119173D01*
X286196Y119257D01*
X287498Y119652D01*
X288698Y120293D01*
X289749Y121156D01*
X290612Y122208D01*
X291253Y123408D01*
X291648Y124709D01*
X291781Y126063D01*
Y129500D01*
D02*
G37*
G36*
X284343D02*
X277904D01*
Y126063D01*
X278037Y124709D01*
X278432Y123408D01*
X279073Y122208D01*
X279936Y121156D01*
X280988Y120293D01*
X282187Y119652D01*
X283489Y119257D01*
X284343Y119173D01*
Y129500D01*
D02*
G37*
G36*
X325500Y131452D02*
Y125972D01*
X330980D01*
X330913Y126649D01*
X330570Y127780D01*
X330013Y128822D01*
X329263Y129736D01*
X328349Y130485D01*
X327307Y131043D01*
X326176Y131386D01*
X325500Y131452D01*
D02*
G37*
G36*
X255464Y145500D02*
X252500D01*
Y142536D01*
X252914Y142590D01*
X253765Y142943D01*
X254496Y143504D01*
X255057Y144235D01*
X255410Y145086D01*
X255464Y145500D01*
D02*
G37*
G36*
X251500D02*
X248536D01*
X248590Y145086D01*
X248943Y144235D01*
X249504Y143504D01*
X250235Y142943D01*
X251086Y142590D01*
X251500Y142536D01*
Y145500D01*
D02*
G37*
G36*
X325000Y151387D02*
X323785Y151268D01*
X322616Y150913D01*
X321539Y150338D01*
X320595Y149563D01*
X319820Y148619D01*
X319244Y147541D01*
X318890Y146373D01*
X318770Y145157D01*
X318890Y143942D01*
X319244Y142773D01*
X319820Y141696D01*
X320595Y140752D01*
X321539Y139977D01*
X322616Y139402D01*
X323785Y139047D01*
X325000Y138927D01*
X326215Y139047D01*
X327384Y139402D01*
X328461Y139977D01*
X329405Y140752D01*
X330180Y141696D01*
X330756Y142773D01*
X331110Y143942D01*
X331230Y145157D01*
X331110Y146373D01*
X330756Y147541D01*
X330180Y148619D01*
X329405Y149563D01*
X328461Y150338D01*
X327384Y150913D01*
X326215Y151268D01*
X325000Y151387D01*
D02*
G37*
G36*
X251500Y149464D02*
X251086Y149410D01*
X250235Y149057D01*
X249504Y148496D01*
X248943Y147765D01*
X248590Y146914D01*
X248536Y146500D01*
X251500D01*
Y149464D01*
D02*
G37*
G36*
X122500Y171073D02*
X121285Y170953D01*
X120116Y170598D01*
X119039Y170023D01*
X118095Y169248D01*
X117320Y168304D01*
X116744Y167227D01*
X116390Y166058D01*
X116270Y164843D01*
X116390Y163627D01*
X116744Y162459D01*
X117320Y161381D01*
X118095Y160437D01*
X119039Y159662D01*
X120116Y159087D01*
X121285Y158732D01*
X122500Y158613D01*
X123715Y158732D01*
X124884Y159087D01*
X125961Y159662D01*
X126905Y160437D01*
X127680Y161381D01*
X128256Y162459D01*
X128610Y163627D01*
X128730Y164843D01*
X128610Y166058D01*
X128256Y167227D01*
X127680Y168304D01*
X126905Y169248D01*
X125961Y170023D01*
X124884Y170598D01*
X123715Y170953D01*
X122500Y171073D01*
D02*
G37*
G36*
X192500Y159993D02*
X191208Y159823D01*
X190004Y159324D01*
X188970Y158530D01*
X188176Y157496D01*
X187677Y156292D01*
X187507Y155000D01*
X187677Y153708D01*
X188176Y152504D01*
X188970Y151470D01*
X190004Y150676D01*
X191208Y150177D01*
X192500Y150007D01*
X193792Y150177D01*
X194996Y150676D01*
X196030Y151470D01*
X196824Y152504D01*
X197323Y153708D01*
X197493Y155000D01*
X197323Y156292D01*
X196824Y157496D01*
X196030Y158530D01*
X194996Y159324D01*
X193792Y159823D01*
X192500Y159993D01*
D02*
G37*
G36*
X252500Y149464D02*
Y146500D01*
X255464D01*
X255410Y146914D01*
X255057Y147765D01*
X254496Y148496D01*
X253765Y149057D01*
X252914Y149410D01*
X252500Y149464D01*
D02*
G37*
G36*
X122500Y151387D02*
X121285Y151268D01*
X120116Y150913D01*
X119039Y150338D01*
X118095Y149563D01*
X117320Y148619D01*
X116744Y147541D01*
X116390Y146373D01*
X116270Y145157D01*
X116390Y143942D01*
X116744Y142773D01*
X117320Y141696D01*
X118095Y140752D01*
X119039Y139977D01*
X120116Y139402D01*
X121285Y139047D01*
X122500Y138927D01*
X123715Y139047D01*
X124884Y139402D01*
X125961Y139977D01*
X126905Y140752D01*
X127680Y141696D01*
X128256Y142773D01*
X128610Y143942D01*
X128730Y145157D01*
X128610Y146373D01*
X128256Y147541D01*
X127680Y148619D01*
X126905Y149563D01*
X125961Y150338D01*
X124884Y150913D01*
X123715Y151268D01*
X122500Y151387D01*
D02*
G37*
G36*
X189343Y140827D02*
X188489Y140743D01*
X187187Y140348D01*
X185987Y139707D01*
X184936Y138844D01*
X184073Y137792D01*
X183432Y136592D01*
X183037Y135291D01*
X182904Y133937D01*
Y130500D01*
X189343D01*
Y140827D01*
D02*
G37*
G36*
X226248Y131331D02*
Y127862D01*
X229717D01*
X229645Y128406D01*
X229242Y129379D01*
X228601Y130215D01*
X227765Y130856D01*
X226792Y131259D01*
X226248Y131331D01*
D02*
G37*
G36*
X225248D02*
X224704Y131259D01*
X223731Y130856D01*
X222895Y130215D01*
X222254Y129379D01*
X221851Y128406D01*
X221779Y127862D01*
X225248D01*
Y131331D01*
D02*
G37*
G36*
X190343Y140827D02*
Y130500D01*
X196782D01*
Y133937D01*
X196648Y135291D01*
X196253Y136592D01*
X195612Y137792D01*
X194749Y138844D01*
X193698Y139707D01*
X192498Y140348D01*
X191196Y140743D01*
X190343Y140827D01*
D02*
G37*
G36*
X225748Y145378D02*
X224652Y145234D01*
X223630Y144810D01*
X222752Y144137D01*
X222079Y143260D01*
X221656Y142238D01*
X221512Y141142D01*
X221656Y140045D01*
X222079Y139024D01*
X222752Y138146D01*
X223630Y137473D01*
X224652Y137050D01*
X225748Y136906D01*
X226844Y137050D01*
X227866Y137473D01*
X228744Y138146D01*
X229417Y139024D01*
X229840Y140045D01*
X229984Y141142D01*
X229840Y142238D01*
X229417Y143260D01*
X228744Y144137D01*
X227866Y144810D01*
X226844Y145234D01*
X225748Y145378D01*
D02*
G37*
G36*
X285343Y140827D02*
Y130500D01*
X291781D01*
Y133937D01*
X291648Y135291D01*
X291253Y136592D01*
X290612Y137792D01*
X289749Y138844D01*
X288698Y139707D01*
X287498Y140348D01*
X286196Y140743D01*
X285343Y140827D01*
D02*
G37*
G36*
X284343D02*
X283489Y140743D01*
X282187Y140348D01*
X280988Y139707D01*
X279936Y138844D01*
X279073Y137792D01*
X278432Y136592D01*
X278037Y135291D01*
X277904Y133937D01*
Y130500D01*
X284343D01*
Y140827D01*
D02*
G37*
G36*
X143000Y484236D02*
X141904Y484092D01*
X140882Y483669D01*
X140005Y482996D01*
X139331Y482118D01*
X138908Y481096D01*
X138764Y480000D01*
X138908Y478904D01*
X139331Y477882D01*
X140005Y477004D01*
X140882Y476331D01*
X141904Y475908D01*
X143000Y475764D01*
X144096Y475908D01*
X145118Y476331D01*
X145995Y477004D01*
X146669Y477882D01*
X147092Y478904D01*
X147236Y480000D01*
X147092Y481096D01*
X146669Y482118D01*
X145995Y482996D01*
X145118Y483669D01*
X144096Y484092D01*
X143000Y484236D01*
D02*
G37*
G36*
X147200Y404200D02*
X138800D01*
Y395800D01*
X147200D01*
Y404200D01*
D02*
G37*
G36*
X273000Y404236D02*
X271904Y404092D01*
X270882Y403669D01*
X270005Y402995D01*
X269331Y402118D01*
X268908Y401096D01*
X268764Y400000D01*
X268908Y398904D01*
X269331Y397882D01*
X270005Y397005D01*
X270882Y396331D01*
X271904Y395908D01*
X273000Y395764D01*
X274096Y395908D01*
X275118Y396331D01*
X275995Y397005D01*
X276669Y397882D01*
X277092Y398904D01*
X277236Y400000D01*
X277092Y401096D01*
X276669Y402118D01*
X275995Y402995D01*
X275118Y403669D01*
X274096Y404092D01*
X273000Y404236D01*
D02*
G37*
G36*
X163000Y484236D02*
X161904Y484092D01*
X160882Y483669D01*
X160004Y482996D01*
X159331Y482118D01*
X158908Y481096D01*
X158764Y480000D01*
X158908Y478904D01*
X159331Y477882D01*
X160004Y477004D01*
X160882Y476331D01*
X161904Y475908D01*
X163000Y475764D01*
X164096Y475908D01*
X165118Y476331D01*
X165996Y477004D01*
X166669Y477882D01*
X167092Y478904D01*
X167236Y480000D01*
X167092Y481096D01*
X166669Y482118D01*
X165996Y482996D01*
X165118Y483669D01*
X164096Y484092D01*
X163000Y484236D01*
D02*
G37*
G36*
X193000D02*
X191904Y484092D01*
X190882Y483669D01*
X190005Y482996D01*
X189331Y482118D01*
X188908Y481096D01*
X188764Y480000D01*
X188908Y478904D01*
X189331Y477882D01*
X190005Y477004D01*
X190882Y476331D01*
X191904Y475908D01*
X193000Y475764D01*
X194096Y475908D01*
X195118Y476331D01*
X195995Y477004D01*
X196669Y477882D01*
X197092Y478904D01*
X197236Y480000D01*
X197092Y481096D01*
X196669Y482118D01*
X195995Y482996D01*
X195118Y483669D01*
X194096Y484092D01*
X193000Y484236D01*
D02*
G37*
G36*
X183000D02*
X181904Y484092D01*
X180882Y483669D01*
X180005Y482996D01*
X179331Y482118D01*
X178908Y481096D01*
X178764Y480000D01*
X178908Y478904D01*
X179331Y477882D01*
X180005Y477004D01*
X180882Y476331D01*
X181904Y475908D01*
X183000Y475764D01*
X184096Y475908D01*
X185118Y476331D01*
X185995Y477004D01*
X186669Y477882D01*
X187092Y478904D01*
X187236Y480000D01*
X187092Y481096D01*
X186669Y482118D01*
X185995Y482996D01*
X185118Y483669D01*
X184096Y484092D01*
X183000Y484236D01*
D02*
G37*
G36*
X173000D02*
X171904Y484092D01*
X170882Y483669D01*
X170004Y482996D01*
X169331Y482118D01*
X168908Y481096D01*
X168764Y480000D01*
X168908Y478904D01*
X169331Y477882D01*
X170004Y477004D01*
X170882Y476331D01*
X171904Y475908D01*
X173000Y475764D01*
X174096Y475908D01*
X175118Y476331D01*
X175996Y477004D01*
X176669Y477882D01*
X177092Y478904D01*
X177236Y480000D01*
X177092Y481096D01*
X176669Y482118D01*
X175996Y482996D01*
X175118Y483669D01*
X174096Y484092D01*
X173000Y484236D01*
D02*
G37*
G36*
X263000Y404236D02*
X261904Y404092D01*
X260882Y403669D01*
X260004Y402995D01*
X259331Y402118D01*
X258908Y401096D01*
X258764Y400000D01*
X258908Y398904D01*
X259331Y397882D01*
X260004Y397005D01*
X260882Y396331D01*
X261904Y395908D01*
X263000Y395764D01*
X264096Y395908D01*
X265118Y396331D01*
X265996Y397005D01*
X266669Y397882D01*
X267092Y398904D01*
X267236Y400000D01*
X267092Y401096D01*
X266669Y402118D01*
X265996Y402995D01*
X265118Y403669D01*
X264096Y404092D01*
X263000Y404236D01*
D02*
G37*
G36*
X213000D02*
X211904Y404092D01*
X210882Y403669D01*
X210004Y402995D01*
X209331Y402118D01*
X208908Y401096D01*
X208764Y400000D01*
X208908Y398904D01*
X209331Y397882D01*
X210004Y397005D01*
X210882Y396331D01*
X211904Y395908D01*
X213000Y395764D01*
X214096Y395908D01*
X215118Y396331D01*
X215996Y397005D01*
X216669Y397882D01*
X217092Y398904D01*
X217236Y400000D01*
X217092Y401096D01*
X216669Y402118D01*
X215996Y402995D01*
X215118Y403669D01*
X214096Y404092D01*
X213000Y404236D01*
D02*
G37*
G36*
X203000D02*
X201904Y404092D01*
X200882Y403669D01*
X200005Y402995D01*
X199331Y402118D01*
X198908Y401096D01*
X198764Y400000D01*
X198908Y398904D01*
X199331Y397882D01*
X200005Y397005D01*
X200882Y396331D01*
X201904Y395908D01*
X203000Y395764D01*
X204096Y395908D01*
X205118Y396331D01*
X205995Y397005D01*
X206669Y397882D01*
X207092Y398904D01*
X207236Y400000D01*
X207092Y401096D01*
X206669Y402118D01*
X205995Y402995D01*
X205118Y403669D01*
X204096Y404092D01*
X203000Y404236D01*
D02*
G37*
G36*
X193000D02*
X191904Y404092D01*
X190882Y403669D01*
X190005Y402995D01*
X189331Y402118D01*
X188908Y401096D01*
X188764Y400000D01*
X188908Y398904D01*
X189331Y397882D01*
X190005Y397005D01*
X190882Y396331D01*
X191904Y395908D01*
X193000Y395764D01*
X194096Y395908D01*
X195118Y396331D01*
X195995Y397005D01*
X196669Y397882D01*
X197092Y398904D01*
X197236Y400000D01*
X197092Y401096D01*
X196669Y402118D01*
X195995Y402995D01*
X195118Y403669D01*
X194096Y404092D01*
X193000Y404236D01*
D02*
G37*
G36*
X223000D02*
X221904Y404092D01*
X220882Y403669D01*
X220005Y402995D01*
X219331Y402118D01*
X218908Y401096D01*
X218764Y400000D01*
X218908Y398904D01*
X219331Y397882D01*
X220005Y397005D01*
X220882Y396331D01*
X221904Y395908D01*
X223000Y395764D01*
X224096Y395908D01*
X225118Y396331D01*
X225995Y397005D01*
X226669Y397882D01*
X227092Y398904D01*
X227236Y400000D01*
X227092Y401096D01*
X226669Y402118D01*
X225995Y402995D01*
X225118Y403669D01*
X224096Y404092D01*
X223000Y404236D01*
D02*
G37*
G36*
X253000D02*
X251904Y404092D01*
X250882Y403669D01*
X250005Y402995D01*
X249331Y402118D01*
X248908Y401096D01*
X248764Y400000D01*
X248908Y398904D01*
X249331Y397882D01*
X250005Y397005D01*
X250882Y396331D01*
X251904Y395908D01*
X253000Y395764D01*
X254096Y395908D01*
X255118Y396331D01*
X255995Y397005D01*
X256669Y397882D01*
X257092Y398904D01*
X257236Y400000D01*
X257092Y401096D01*
X256669Y402118D01*
X255995Y402995D01*
X255118Y403669D01*
X254096Y404092D01*
X253000Y404236D01*
D02*
G37*
G36*
X243000D02*
X241904Y404092D01*
X240882Y403669D01*
X240004Y402995D01*
X239331Y402118D01*
X238908Y401096D01*
X238764Y400000D01*
X238908Y398904D01*
X239331Y397882D01*
X240004Y397005D01*
X240882Y396331D01*
X241904Y395908D01*
X243000Y395764D01*
X244096Y395908D01*
X245118Y396331D01*
X245995Y397005D01*
X246669Y397882D01*
X247092Y398904D01*
X247236Y400000D01*
X247092Y401096D01*
X246669Y402118D01*
X245995Y402995D01*
X245118Y403669D01*
X244096Y404092D01*
X243000Y404236D01*
D02*
G37*
G36*
X233000D02*
X231904Y404092D01*
X230882Y403669D01*
X230005Y402995D01*
X229331Y402118D01*
X228908Y401096D01*
X228764Y400000D01*
X228908Y398904D01*
X229331Y397882D01*
X230005Y397005D01*
X230882Y396331D01*
X231904Y395908D01*
X233000Y395764D01*
X234096Y395908D01*
X235118Y396331D01*
X235996Y397005D01*
X236669Y397882D01*
X237092Y398904D01*
X237236Y400000D01*
X237092Y401096D01*
X236669Y402118D01*
X235996Y402995D01*
X235118Y403669D01*
X234096Y404092D01*
X233000Y404236D01*
D02*
G37*
G36*
X276969Y479500D02*
X273500D01*
Y476031D01*
X274044Y476103D01*
X275017Y476506D01*
X275853Y477147D01*
X276494Y477983D01*
X276897Y478956D01*
X276969Y479500D01*
D02*
G37*
G36*
X272500D02*
X269031D01*
X269103Y478956D01*
X269506Y477983D01*
X270147Y477147D01*
X270983Y476506D01*
X271956Y476103D01*
X272500Y476031D01*
Y479500D01*
D02*
G37*
G36*
X156969D02*
X153500D01*
Y476031D01*
X154044Y476103D01*
X155017Y476506D01*
X155853Y477147D01*
X156494Y477983D01*
X156897Y478956D01*
X156969Y479500D01*
D02*
G37*
G36*
X152500Y483969D02*
X151956Y483897D01*
X150983Y483494D01*
X150147Y482853D01*
X149506Y482017D01*
X149103Y481044D01*
X149031Y480500D01*
X152500D01*
Y483969D01*
D02*
G37*
G36*
X273500D02*
Y480500D01*
X276969D01*
X276897Y481044D01*
X276494Y482017D01*
X275853Y482853D01*
X275017Y483494D01*
X274044Y483897D01*
X273500Y483969D01*
D02*
G37*
G36*
X272500D02*
X271956Y483897D01*
X270983Y483494D01*
X270147Y482853D01*
X269506Y482017D01*
X269103Y481044D01*
X269031Y480500D01*
X272500D01*
Y483969D01*
D02*
G37*
G36*
X153500D02*
Y480500D01*
X156969D01*
X156897Y481044D01*
X156494Y482017D01*
X155853Y482853D01*
X155017Y483494D01*
X154044Y483897D01*
X153500Y483969D01*
D02*
G37*
G36*
X152500Y479500D02*
X149031D01*
X149103Y478956D01*
X149506Y477983D01*
X150147Y477147D01*
X150983Y476506D01*
X151956Y476103D01*
X152500Y476031D01*
Y479500D01*
D02*
G37*
G36*
X223000Y484236D02*
X221904Y484092D01*
X220882Y483669D01*
X220005Y482996D01*
X219331Y482118D01*
X218908Y481096D01*
X218764Y480000D01*
X218908Y478904D01*
X219331Y477882D01*
X220005Y477004D01*
X220882Y476331D01*
X221904Y475908D01*
X223000Y475764D01*
X224096Y475908D01*
X225118Y476331D01*
X225995Y477004D01*
X226669Y477882D01*
X227092Y478904D01*
X227236Y480000D01*
X227092Y481096D01*
X226669Y482118D01*
X225995Y482996D01*
X225118Y483669D01*
X224096Y484092D01*
X223000Y484236D01*
D02*
G37*
G36*
X213000D02*
X211904Y484092D01*
X210882Y483669D01*
X210004Y482996D01*
X209331Y482118D01*
X208908Y481096D01*
X208764Y480000D01*
X208908Y478904D01*
X209331Y477882D01*
X210004Y477004D01*
X210882Y476331D01*
X211904Y475908D01*
X213000Y475764D01*
X214096Y475908D01*
X215118Y476331D01*
X215996Y477004D01*
X216669Y477882D01*
X217092Y478904D01*
X217236Y480000D01*
X217092Y481096D01*
X216669Y482118D01*
X215996Y482996D01*
X215118Y483669D01*
X214096Y484092D01*
X213000Y484236D01*
D02*
G37*
G36*
X203000D02*
X201904Y484092D01*
X200882Y483669D01*
X200005Y482996D01*
X199331Y482118D01*
X198908Y481096D01*
X198764Y480000D01*
X198908Y478904D01*
X199331Y477882D01*
X200005Y477004D01*
X200882Y476331D01*
X201904Y475908D01*
X203000Y475764D01*
X204096Y475908D01*
X205118Y476331D01*
X205995Y477004D01*
X206669Y477882D01*
X207092Y478904D01*
X207236Y480000D01*
X207092Y481096D01*
X206669Y482118D01*
X205995Y482996D01*
X205118Y483669D01*
X204096Y484092D01*
X203000Y484236D01*
D02*
G37*
G36*
X233000D02*
X231904Y484092D01*
X230882Y483669D01*
X230005Y482996D01*
X229331Y482118D01*
X228908Y481096D01*
X228764Y480000D01*
X228908Y478904D01*
X229331Y477882D01*
X230005Y477004D01*
X230882Y476331D01*
X231904Y475908D01*
X233000Y475764D01*
X234096Y475908D01*
X235118Y476331D01*
X235996Y477004D01*
X236669Y477882D01*
X237092Y478904D01*
X237236Y480000D01*
X237092Y481096D01*
X236669Y482118D01*
X235996Y482996D01*
X235118Y483669D01*
X234096Y484092D01*
X233000Y484236D01*
D02*
G37*
G36*
X263000D02*
X261904Y484092D01*
X260882Y483669D01*
X260004Y482996D01*
X259331Y482118D01*
X258908Y481096D01*
X258764Y480000D01*
X258908Y478904D01*
X259331Y477882D01*
X260004Y477004D01*
X260882Y476331D01*
X261904Y475908D01*
X263000Y475764D01*
X264096Y475908D01*
X265118Y476331D01*
X265996Y477004D01*
X266669Y477882D01*
X267092Y478904D01*
X267236Y480000D01*
X267092Y481096D01*
X266669Y482118D01*
X265996Y482996D01*
X265118Y483669D01*
X264096Y484092D01*
X263000Y484236D01*
D02*
G37*
G36*
X253000D02*
X251904Y484092D01*
X250882Y483669D01*
X250005Y482996D01*
X249331Y482118D01*
X248908Y481096D01*
X248764Y480000D01*
X248908Y478904D01*
X249331Y477882D01*
X250005Y477004D01*
X250882Y476331D01*
X251904Y475908D01*
X253000Y475764D01*
X254096Y475908D01*
X255118Y476331D01*
X255995Y477004D01*
X256669Y477882D01*
X257092Y478904D01*
X257236Y480000D01*
X257092Y481096D01*
X256669Y482118D01*
X255995Y482996D01*
X255118Y483669D01*
X254096Y484092D01*
X253000Y484236D01*
D02*
G37*
G36*
X243000D02*
X241904Y484092D01*
X240882Y483669D01*
X240004Y482996D01*
X239331Y482118D01*
X238908Y481096D01*
X238764Y480000D01*
X238908Y478904D01*
X239331Y477882D01*
X240004Y477004D01*
X240882Y476331D01*
X241904Y475908D01*
X243000Y475764D01*
X244096Y475908D01*
X245118Y476331D01*
X245995Y477004D01*
X246669Y477882D01*
X247092Y478904D01*
X247236Y480000D01*
X247092Y481096D01*
X246669Y482118D01*
X245995Y482996D01*
X245118Y483669D01*
X244096Y484092D01*
X243000Y484236D01*
D02*
G37*
G36*
X183000Y404236D02*
X181904Y404092D01*
X180882Y403669D01*
X180005Y402995D01*
X179331Y402118D01*
X178908Y401096D01*
X178764Y400000D01*
X178908Y398904D01*
X179331Y397882D01*
X180005Y397005D01*
X180882Y396331D01*
X181904Y395908D01*
X183000Y395764D01*
X184096Y395908D01*
X185118Y396331D01*
X185995Y397005D01*
X186669Y397882D01*
X187092Y398904D01*
X187236Y400000D01*
X187092Y401096D01*
X186669Y402118D01*
X185995Y402995D01*
X185118Y403669D01*
X184096Y404092D01*
X183000Y404236D01*
D02*
G37*
G36*
X269977Y306500D02*
X252023D01*
X252129Y305695D01*
X252632Y304478D01*
X253434Y303434D01*
X254478Y302632D01*
X255091Y302379D01*
Y301838D01*
X254378Y301542D01*
X253291Y300709D01*
X252458Y299622D01*
X251934Y298358D01*
X251755Y297000D01*
X251934Y295642D01*
X252458Y294378D01*
X253291Y293291D01*
X254378Y292458D01*
X254879Y292250D01*
Y291750D01*
X254378Y291542D01*
X253291Y290709D01*
X252458Y289622D01*
X251934Y288357D01*
X251755Y287000D01*
X251934Y285643D01*
X252458Y284378D01*
X253291Y283291D01*
X254378Y282458D01*
X255643Y281934D01*
X257000Y281755D01*
X265000D01*
X266357Y281934D01*
X267622Y282458D01*
X268709Y283291D01*
X269542Y284378D01*
X270066Y285643D01*
X270245Y287000D01*
X270066Y288357D01*
X269542Y289622D01*
X268709Y290709D01*
X267622Y291542D01*
X267121Y291750D01*
Y292250D01*
X267622Y292458D01*
X268709Y293291D01*
X269542Y294378D01*
X270066Y295642D01*
X270245Y297000D01*
X270066Y298358D01*
X269542Y299622D01*
X268709Y300709D01*
X267622Y301542D01*
X266909Y301838D01*
Y302379D01*
X267522Y302632D01*
X268566Y303434D01*
X269368Y304478D01*
X269871Y305695D01*
X269977Y306500D01*
D02*
G37*
G36*
X191000Y313235D02*
X188881Y313096D01*
X186798Y312682D01*
X184787Y311999D01*
X182883Y311060D01*
X181117Y309880D01*
X179520Y308480D01*
X178120Y306883D01*
X176940Y305117D01*
X176001Y303213D01*
X175318Y301202D01*
X174904Y299119D01*
X174765Y297000D01*
X174904Y294881D01*
X175318Y292798D01*
X176001Y290787D01*
X176940Y288883D01*
X178120Y287117D01*
X179520Y285520D01*
X181117Y284120D01*
X182883Y282940D01*
X184787Y282001D01*
X186798Y281318D01*
X188881Y280904D01*
X191000Y280765D01*
X193119Y280904D01*
X195202Y281318D01*
X197213Y282001D01*
X199117Y282940D01*
X200883Y284120D01*
X202480Y285520D01*
X203880Y287117D01*
X205060Y288883D01*
X205999Y290787D01*
X206682Y292798D01*
X207096Y294881D01*
X207235Y297000D01*
X207096Y299119D01*
X206682Y301202D01*
X205999Y303213D01*
X205060Y305117D01*
X203880Y306883D01*
X202480Y308480D01*
X200883Y309880D01*
X199117Y311060D01*
X197213Y311999D01*
X195202Y312682D01*
X193119Y313096D01*
X191000Y313235D01*
D02*
G37*
G36*
X136477Y294500D02*
X123523D01*
X123629Y293695D01*
X124133Y292478D01*
X124934Y291434D01*
X125978Y290633D01*
X126591Y290379D01*
Y289838D01*
X125878Y289542D01*
X124791Y288709D01*
X123958Y287622D01*
X123434Y286357D01*
X123255Y285000D01*
X123434Y283643D01*
X123958Y282378D01*
X124791Y281291D01*
X125878Y280458D01*
X127143Y279934D01*
X128500Y279755D01*
X131500D01*
X132858Y279934D01*
X134122Y280458D01*
X135209Y281291D01*
X136042Y282378D01*
X136566Y283643D01*
X136745Y285000D01*
X136566Y286357D01*
X136042Y287622D01*
X135209Y288709D01*
X134122Y289542D01*
X133409Y289838D01*
Y290379D01*
X134022Y290633D01*
X135066Y291434D01*
X135868Y292478D01*
X136371Y293695D01*
X136477Y294500D01*
D02*
G37*
G36*
X157000Y294657D02*
X146673D01*
X146757Y293804D01*
X147152Y292502D01*
X147793Y291302D01*
X148656Y290251D01*
X149708Y289388D01*
X150908Y288747D01*
X152209Y288352D01*
X153563Y288218D01*
X157000D01*
Y294657D01*
D02*
G37*
G36*
Y302096D02*
X153563D01*
X152209Y301963D01*
X150908Y301568D01*
X149708Y300927D01*
X148656Y300064D01*
X147793Y299012D01*
X147152Y297813D01*
X146757Y296511D01*
X146673Y295657D01*
X157000D01*
Y302096D01*
D02*
G37*
G36*
X136477Y304500D02*
X123523D01*
X123629Y303695D01*
X124133Y302478D01*
X124934Y301434D01*
X125978Y300633D01*
X126852Y300271D01*
Y299729D01*
X125978Y299367D01*
X124934Y298566D01*
X124133Y297522D01*
X123629Y296305D01*
X123523Y295500D01*
X136477D01*
X136371Y296305D01*
X135868Y297522D01*
X135066Y298566D01*
X134022Y299367D01*
X133148Y299729D01*
Y300271D01*
X134022Y300633D01*
X135066Y301434D01*
X135868Y302478D01*
X136371Y303695D01*
X136477Y304500D01*
D02*
G37*
G36*
X168327Y294657D02*
X158000D01*
Y288218D01*
X161437D01*
X162791Y288352D01*
X164092Y288747D01*
X165292Y289388D01*
X166344Y290251D01*
X167207Y291302D01*
X167848Y292502D01*
X168243Y293804D01*
X168327Y294657D01*
D02*
G37*
G36*
X291937Y285982D02*
X284063D01*
X282670Y285845D01*
X281331Y285439D01*
X280096Y284779D01*
X279014Y283891D01*
X278126Y282809D01*
X277467Y281575D01*
X277060Y280236D01*
X276923Y278843D01*
X277060Y277450D01*
X277467Y276110D01*
X278126Y274876D01*
X279014Y273794D01*
X280096Y272906D01*
X281331Y272246D01*
X282670Y271840D01*
X284063Y271703D01*
X291937D01*
X293330Y271840D01*
X294669Y272246D01*
X295904Y272906D01*
X296986Y273794D01*
X297874Y274876D01*
X298533Y276110D01*
X298940Y277450D01*
X299077Y278843D01*
X298940Y280236D01*
X298533Y281575D01*
X297874Y282809D01*
X296986Y283891D01*
X295904Y284779D01*
X294669Y285439D01*
X293330Y285845D01*
X291937Y285982D01*
D02*
G37*
G36*
X202843Y265827D02*
Y255500D01*
X209281D01*
Y258937D01*
X209148Y260291D01*
X208753Y261592D01*
X208112Y262792D01*
X207249Y263844D01*
X206198Y264706D01*
X204998Y265348D01*
X203696Y265743D01*
X202843Y265827D01*
D02*
G37*
G36*
X201843D02*
X200989Y265743D01*
X199687Y265348D01*
X198487Y264706D01*
X197436Y263844D01*
X196573Y262792D01*
X195932Y261592D01*
X195537Y260291D01*
X195404Y258937D01*
Y255500D01*
X201843D01*
Y265827D01*
D02*
G37*
G36*
X298827Y258657D02*
X288500D01*
Y252219D01*
X291937D01*
X293291Y252352D01*
X294592Y252747D01*
X295792Y253388D01*
X296844Y254251D01*
X297707Y255302D01*
X298348Y256502D01*
X298743Y257804D01*
X298827Y258657D01*
D02*
G37*
G36*
X251843Y265827D02*
X250989Y265743D01*
X249687Y265348D01*
X248487Y264706D01*
X247436Y263844D01*
X246573Y262792D01*
X245932Y261592D01*
X245537Y260291D01*
X245404Y258937D01*
Y255500D01*
X251843D01*
Y265827D01*
D02*
G37*
G36*
X291937Y266096D02*
X288500D01*
Y259657D01*
X298827D01*
X298743Y260511D01*
X298348Y261813D01*
X297707Y263013D01*
X296844Y264064D01*
X295792Y264927D01*
X294592Y265568D01*
X293291Y265963D01*
X291937Y266096D01*
D02*
G37*
G36*
X287500D02*
X284063D01*
X282709Y265963D01*
X281408Y265568D01*
X280208Y264927D01*
X279156Y264064D01*
X278293Y263013D01*
X277652Y261813D01*
X277257Y260511D01*
X277173Y259657D01*
X287500D01*
Y266096D01*
D02*
G37*
G36*
X252843Y265827D02*
Y255500D01*
X259281D01*
Y258937D01*
X259148Y260291D01*
X258753Y261592D01*
X258112Y262792D01*
X257249Y263844D01*
X256198Y264706D01*
X254998Y265348D01*
X253696Y265743D01*
X252843Y265827D01*
D02*
G37*
G36*
X174500Y391993D02*
X173208Y391823D01*
X172004Y391324D01*
X170970Y390530D01*
X170176Y389496D01*
X169677Y388292D01*
X169507Y387000D01*
X169677Y385708D01*
X170176Y384504D01*
X170970Y383470D01*
X172004Y382676D01*
X173208Y382177D01*
X174500Y382007D01*
X175792Y382177D01*
X176996Y382676D01*
X178030Y383470D01*
X178824Y384504D01*
X179323Y385708D01*
X179493Y387000D01*
X179323Y388292D01*
X178824Y389496D01*
X178030Y390530D01*
X176996Y391324D01*
X175792Y391823D01*
X174500Y391993D01*
D02*
G37*
G36*
X265000Y373043D02*
X261500D01*
Y368500D01*
X269977D01*
X269871Y369305D01*
X269368Y370522D01*
X268566Y371566D01*
X267522Y372368D01*
X266305Y372871D01*
X265000Y373043D01*
D02*
G37*
G36*
X260500D02*
X257000D01*
X255695Y372871D01*
X254478Y372368D01*
X253434Y371566D01*
X252632Y370522D01*
X252129Y369305D01*
X252023Y368500D01*
X260500D01*
Y373043D01*
D02*
G37*
G36*
X209500Y391993D02*
X208208Y391823D01*
X207004Y391324D01*
X205970Y390530D01*
X205176Y389496D01*
X204677Y388292D01*
X204507Y387000D01*
X204677Y385708D01*
X205176Y384504D01*
X205970Y383470D01*
X207004Y382676D01*
X208208Y382177D01*
X209500Y382007D01*
X210792Y382177D01*
X211996Y382676D01*
X213030Y383470D01*
X213824Y384504D01*
X214323Y385708D01*
X214493Y387000D01*
X214323Y388292D01*
X213824Y389496D01*
X213030Y390530D01*
X211996Y391324D01*
X210792Y391823D01*
X209500Y391993D01*
D02*
G37*
G36*
X173000Y404236D02*
X171904Y404092D01*
X170882Y403669D01*
X170004Y402995D01*
X169331Y402118D01*
X168908Y401096D01*
X168764Y400000D01*
X168908Y398904D01*
X169331Y397882D01*
X170004Y397005D01*
X170882Y396331D01*
X171904Y395908D01*
X173000Y395764D01*
X174096Y395908D01*
X175118Y396331D01*
X175996Y397005D01*
X176669Y397882D01*
X177092Y398904D01*
X177236Y400000D01*
X177092Y401096D01*
X176669Y402118D01*
X175996Y402995D01*
X175118Y403669D01*
X174096Y404092D01*
X173000Y404236D01*
D02*
G37*
G36*
X163000D02*
X161904Y404092D01*
X160882Y403669D01*
X160004Y402995D01*
X159331Y402118D01*
X158908Y401096D01*
X158764Y400000D01*
X158908Y398904D01*
X159331Y397882D01*
X160004Y397005D01*
X160882Y396331D01*
X161904Y395908D01*
X163000Y395764D01*
X164096Y395908D01*
X165118Y396331D01*
X165996Y397005D01*
X166669Y397882D01*
X167092Y398904D01*
X167236Y400000D01*
X167092Y401096D01*
X166669Y402118D01*
X165996Y402995D01*
X165118Y403669D01*
X164096Y404092D01*
X163000Y404236D01*
D02*
G37*
G36*
X153000D02*
X151904Y404092D01*
X150882Y403669D01*
X150004Y402995D01*
X149331Y402118D01*
X148908Y401096D01*
X148764Y400000D01*
X148908Y398904D01*
X149331Y397882D01*
X150004Y397005D01*
X150882Y396331D01*
X151904Y395908D01*
X153000Y395764D01*
X154096Y395908D01*
X155118Y396331D01*
X155996Y397005D01*
X156669Y397882D01*
X157092Y398904D01*
X157236Y400000D01*
X157092Y401096D01*
X156669Y402118D01*
X155996Y402995D01*
X155118Y403669D01*
X154096Y404092D01*
X153000Y404236D01*
D02*
G37*
G36*
X269977Y367500D02*
X252023D01*
X252129Y366695D01*
X252632Y365478D01*
X253434Y364434D01*
X254478Y363632D01*
X255091Y363379D01*
Y362838D01*
X254378Y362542D01*
X253291Y361709D01*
X252458Y360622D01*
X251934Y359358D01*
X251755Y358000D01*
X251934Y356643D01*
X252458Y355378D01*
X253291Y354291D01*
X254378Y353458D01*
X254879Y353250D01*
Y352750D01*
X254378Y352542D01*
X253291Y351709D01*
X252458Y350622D01*
X251934Y349358D01*
X251755Y348000D01*
X251934Y346642D01*
X252458Y345378D01*
X253291Y344291D01*
X254378Y343458D01*
X255643Y342934D01*
X257000Y342755D01*
X265000D01*
X266357Y342934D01*
X267622Y343458D01*
X268709Y344291D01*
X269542Y345378D01*
X270066Y346642D01*
X270245Y348000D01*
X270066Y349358D01*
X269542Y350622D01*
X268709Y351709D01*
X267622Y352542D01*
X267121Y352750D01*
Y353250D01*
X267622Y353458D01*
X268709Y354291D01*
X269542Y355378D01*
X270066Y356643D01*
X270245Y358000D01*
X270066Y359358D01*
X269542Y360622D01*
X268709Y361709D01*
X267622Y362542D01*
X266909Y362838D01*
Y363379D01*
X267522Y363632D01*
X268566Y364434D01*
X269368Y365478D01*
X269871Y366695D01*
X269977Y367500D01*
D02*
G37*
G36*
X131500Y360245D02*
X128500D01*
X127143Y360066D01*
X125878Y359542D01*
X124791Y358709D01*
X123958Y357622D01*
X123434Y356358D01*
X123255Y355000D01*
X123434Y353643D01*
X123958Y352378D01*
X124791Y351291D01*
X125878Y350458D01*
X126379Y350250D01*
Y349750D01*
X125878Y349542D01*
X124791Y348709D01*
X123958Y347622D01*
X123434Y346357D01*
X123255Y345000D01*
X123434Y343642D01*
X123958Y342378D01*
X124791Y341291D01*
X125878Y340458D01*
X126379Y340250D01*
Y339750D01*
X125878Y339542D01*
X124791Y338709D01*
X123958Y337622D01*
X123434Y336357D01*
X123255Y335000D01*
X123434Y333643D01*
X123958Y332378D01*
X124791Y331291D01*
X125878Y330458D01*
X126379Y330250D01*
Y329750D01*
X125878Y329542D01*
X124791Y328709D01*
X123958Y327622D01*
X123434Y326358D01*
X123255Y325000D01*
X123434Y323642D01*
X123958Y322378D01*
X124791Y321291D01*
X125878Y320458D01*
X126379Y320250D01*
Y319750D01*
X125878Y319542D01*
X124791Y318709D01*
X123958Y317622D01*
X123434Y316357D01*
X123255Y315000D01*
X123434Y313643D01*
X123958Y312378D01*
X124791Y311291D01*
X125878Y310458D01*
X126591Y310162D01*
Y309621D01*
X125978Y309367D01*
X124934Y308566D01*
X124133Y307522D01*
X123629Y306305D01*
X123523Y305500D01*
X136477D01*
X136371Y306305D01*
X135868Y307522D01*
X135066Y308566D01*
X134022Y309367D01*
X133409Y309621D01*
Y310162D01*
X134122Y310458D01*
X135209Y311291D01*
X136042Y312378D01*
X136566Y313643D01*
X136745Y315000D01*
X136566Y316357D01*
X136042Y317622D01*
X135209Y318709D01*
X134122Y319542D01*
X133621Y319750D01*
Y320250D01*
X134122Y320458D01*
X135209Y321291D01*
X136042Y322378D01*
X136566Y323642D01*
X136745Y325000D01*
X136566Y326358D01*
X136042Y327622D01*
X135209Y328709D01*
X134122Y329542D01*
X133621Y329750D01*
Y330250D01*
X134122Y330458D01*
X135209Y331291D01*
X136042Y332378D01*
X136566Y333643D01*
X136745Y335000D01*
X136566Y336357D01*
X136042Y337622D01*
X135209Y338709D01*
X134122Y339542D01*
X133621Y339750D01*
Y340250D01*
X134122Y340458D01*
X135209Y341291D01*
X136042Y342378D01*
X136566Y343642D01*
X136745Y345000D01*
X136566Y346357D01*
X136042Y347622D01*
X135209Y348709D01*
X134122Y349542D01*
X133621Y349750D01*
Y350250D01*
X134122Y350458D01*
X135209Y351291D01*
X136042Y352378D01*
X136566Y353643D01*
X136745Y355000D01*
X136566Y356358D01*
X136042Y357622D01*
X135209Y358709D01*
X134122Y359542D01*
X132858Y360066D01*
X131500Y360245D01*
D02*
G37*
G36*
X291937Y313297D02*
X284063D01*
X282670Y313160D01*
X281331Y312754D01*
X280096Y312094D01*
X279014Y311206D01*
X278126Y310124D01*
X277467Y308890D01*
X277060Y307550D01*
X276923Y306157D01*
X277060Y304765D01*
X277467Y303425D01*
X278126Y302191D01*
X279014Y301109D01*
X280096Y300221D01*
X281331Y299561D01*
X282670Y299155D01*
X284063Y299018D01*
X291937D01*
X293330Y299155D01*
X294669Y299561D01*
X295904Y300221D01*
X296986Y301109D01*
X297874Y302191D01*
X298533Y303425D01*
X298940Y304765D01*
X299077Y306157D01*
X298940Y307550D01*
X298533Y308890D01*
X297874Y310124D01*
X296986Y311206D01*
X295904Y312094D01*
X294669Y312754D01*
X293330Y313160D01*
X291937Y313297D01*
D02*
G37*
G36*
X161437Y302096D02*
X158000D01*
Y295657D01*
X168327D01*
X168243Y296511D01*
X167848Y297813D01*
X167207Y299012D01*
X166344Y300064D01*
X165292Y300927D01*
X164092Y301568D01*
X162791Y301963D01*
X161437Y302096D01*
D02*
G37*
G36*
X260500Y312043D02*
X257000D01*
X255695Y311871D01*
X254478Y311368D01*
X253434Y310566D01*
X252632Y309522D01*
X252129Y308305D01*
X252023Y307500D01*
X260500D01*
Y312043D01*
D02*
G37*
G36*
X191000Y374235D02*
X188881Y374096D01*
X186798Y373682D01*
X184787Y372999D01*
X182883Y372060D01*
X181117Y370880D01*
X179520Y369480D01*
X178120Y367883D01*
X176940Y366117D01*
X176001Y364213D01*
X175318Y362202D01*
X174904Y360119D01*
X174765Y358000D01*
X174904Y355881D01*
X175318Y353798D01*
X176001Y351787D01*
X176940Y349883D01*
X178120Y348117D01*
X179520Y346520D01*
X181117Y345120D01*
X182883Y343940D01*
X184787Y343001D01*
X186798Y342318D01*
X188881Y341904D01*
X191000Y341765D01*
X193119Y341904D01*
X195202Y342318D01*
X197213Y343001D01*
X199117Y343940D01*
X200883Y345120D01*
X202480Y346520D01*
X203880Y348117D01*
X205060Y349883D01*
X205999Y351787D01*
X206682Y353798D01*
X207096Y355881D01*
X207235Y358000D01*
X207096Y360119D01*
X206682Y362202D01*
X205999Y364213D01*
X205060Y366117D01*
X203880Y367883D01*
X202480Y369480D01*
X200883Y370880D01*
X199117Y372060D01*
X197213Y372999D01*
X195202Y373682D01*
X193119Y374096D01*
X191000Y374235D01*
D02*
G37*
G36*
X160937Y355297D02*
X153063D01*
X151670Y355160D01*
X150331Y354754D01*
X149096Y354094D01*
X148014Y353206D01*
X147126Y352124D01*
X146467Y350890D01*
X146060Y349550D01*
X145923Y348157D01*
X146060Y346764D01*
X146467Y345425D01*
X147126Y344191D01*
X148014Y343109D01*
X149096Y342221D01*
X150331Y341561D01*
X151670Y341155D01*
X153063Y341018D01*
X154706D01*
Y321983D01*
X153563D01*
X152170Y321845D01*
X150831Y321439D01*
X149596Y320779D01*
X148514Y319891D01*
X147626Y318809D01*
X146967Y317575D01*
X146560Y316235D01*
X146423Y314843D01*
X146560Y313450D01*
X146967Y312110D01*
X147626Y310876D01*
X148514Y309794D01*
X149596Y308906D01*
X150831Y308246D01*
X152170Y307840D01*
X153563Y307703D01*
X161437D01*
X162830Y307840D01*
X164169Y308246D01*
X165404Y308906D01*
X166486Y309794D01*
X167374Y310876D01*
X168033Y312110D01*
X168440Y313450D01*
X168577Y314843D01*
X168440Y316235D01*
X168033Y317575D01*
X167374Y318809D01*
X166486Y319891D01*
X165404Y320779D01*
X164169Y321439D01*
X162830Y321845D01*
X161437Y321983D01*
X159294D01*
Y341018D01*
X160937D01*
X162330Y341155D01*
X163669Y341561D01*
X164904Y342221D01*
X165986Y343109D01*
X166874Y344191D01*
X167533Y345425D01*
X167940Y346764D01*
X168077Y348157D01*
X167940Y349550D01*
X167533Y350890D01*
X166874Y352124D01*
X165986Y353206D01*
X164904Y354094D01*
X163669Y354754D01*
X162330Y355160D01*
X160937Y355297D01*
D02*
G37*
G36*
X265000Y312043D02*
X261500D01*
Y307500D01*
X269977D01*
X269871Y308305D01*
X269368Y309522D01*
X268566Y310566D01*
X267522Y311368D01*
X266305Y311871D01*
X265000Y312043D01*
D02*
G37*
%LPD*%
D19*
X157000Y315343D02*
Y348157D01*
D20*
X302000Y331000D02*
X320000D01*
X307000Y321000D02*
X320000D01*
X305000Y416000D02*
Y434000D01*
Y448000D02*
Y454000D01*
Y448000D02*
X310000Y443000D01*
Y439000D02*
Y443000D01*
X305000Y434000D02*
X310000Y439000D01*
X305000Y405000D02*
X317100D01*
X299000D02*
X305000D01*
X298000Y406000D02*
X299000Y405000D01*
X298000Y406000D02*
Y440000D01*
X299000Y441000D01*
X305000D01*
Y416000D02*
X327000D01*
X329300Y288000D02*
Y413700D01*
X327000Y416000D02*
X329300Y413700D01*
X300000Y251000D02*
Y252043D01*
X303300Y255343D01*
X317100Y405000D02*
X327100Y395000D01*
X329300Y288000D02*
X332300Y285000D01*
X337500D01*
X157500Y314843D02*
X158900D01*
X157000Y315000D02*
Y315343D01*
X327100Y256250D02*
Y395000D01*
X325850Y255000D02*
X327100Y256250D01*
X320000Y255000D02*
X325850D01*
X310500Y179343D02*
X325000Y164843D01*
X310500Y179343D02*
Y297500D01*
X314000Y301000D01*
X320000D01*
X309300Y311000D02*
X320000D01*
X303300Y305000D02*
X309300Y311000D01*
X303300Y255343D02*
Y305000D01*
X315100Y285000D02*
X320000D01*
X157000Y315000D02*
X158900D01*
Y314843D02*
Y315000D01*
X287000Y176000D02*
Y195000D01*
D22*
X156000Y155000D02*
X157500D01*
X147000Y164000D02*
X156000Y155000D01*
X147000Y164000D02*
Y269000D01*
X141000Y275000D02*
X147000Y269000D01*
X120000Y275000D02*
X141000D01*
X111000Y284000D02*
X120000Y275000D01*
X111000Y284000D02*
Y361000D01*
X117843Y367843D01*
X157000D01*
D24*
X185000Y175000D02*
D03*
D25*
X175000D02*
D03*
X165000D02*
D03*
D26*
X288000Y259157D02*
D03*
Y278843D02*
D03*
Y214157D02*
D03*
Y233843D02*
D03*
X157500Y295157D02*
D03*
Y314843D02*
D03*
X157000Y348157D02*
D03*
Y367843D02*
D03*
X288000Y306157D02*
D03*
Y325843D02*
D03*
D27*
X325000Y125472D02*
D03*
Y145157D02*
D03*
Y164843D02*
D03*
Y184528D02*
D03*
X122500Y125472D02*
D03*
Y145157D02*
D03*
Y164843D02*
D03*
Y184528D02*
D03*
D28*
X284843Y130000D02*
D03*
X265157D02*
D03*
X189843D02*
D03*
X170157D02*
D03*
X252343Y255000D02*
D03*
X232657D02*
D03*
X202343D02*
D03*
X182657D02*
D03*
D29*
X240000Y175000D02*
D03*
D30*
X250000D02*
D03*
X260000D02*
D03*
D31*
X225748Y141142D02*
D03*
Y127362D02*
D03*
X163000Y480000D02*
D03*
X173000D02*
D03*
X253000D02*
D03*
X243000D02*
D03*
X233000D02*
D03*
X223000D02*
D03*
X213000D02*
D03*
X203000D02*
D03*
X193000D02*
D03*
X183000D02*
D03*
X153000Y400000D02*
D03*
X163000D02*
D03*
X173000D02*
D03*
X183000D02*
D03*
X193000D02*
D03*
X203000D02*
D03*
X213000D02*
D03*
X223000D02*
D03*
X233000D02*
D03*
X243000D02*
D03*
X253000D02*
D03*
X263000D02*
D03*
X273000D02*
D03*
X143000Y480000D02*
D03*
X153000D02*
D03*
X263000D02*
D03*
X273000D02*
D03*
D32*
X192500Y155000D02*
D03*
X157500D02*
D03*
X174500Y387000D02*
D03*
X209500D02*
D03*
D33*
X143000Y400000D02*
D03*
D34*
X261000Y287000D02*
D03*
Y297000D02*
D03*
Y307000D02*
D03*
Y348000D02*
D03*
Y358000D02*
D03*
Y368000D02*
D03*
D35*
X191000Y297000D02*
D03*
Y358000D02*
D03*
D36*
X337500Y285000D02*
D03*
Y265000D02*
D03*
Y275000D02*
D03*
Y225000D02*
D03*
Y235000D02*
D03*
Y255000D02*
D03*
Y245000D02*
D03*
D37*
Y215000D02*
D03*
D38*
X337000Y351000D02*
D03*
Y341000D02*
D03*
Y331000D02*
D03*
Y321000D02*
D03*
Y311000D02*
D03*
Y301000D02*
D03*
X112500Y215000D02*
D03*
Y225000D02*
D03*
Y235000D02*
D03*
Y245000D02*
D03*
Y255000D02*
D03*
Y265000D02*
D03*
D39*
X320000Y215000D02*
D03*
Y341000D02*
D03*
Y351000D02*
D03*
Y361000D02*
D03*
Y371000D02*
D03*
Y381000D02*
D03*
Y391000D02*
D03*
Y331000D02*
D03*
Y321000D02*
D03*
Y311000D02*
D03*
Y301000D02*
D03*
Y235000D02*
D03*
Y245000D02*
D03*
Y255000D02*
D03*
Y265000D02*
D03*
Y275000D02*
D03*
Y285000D02*
D03*
Y225000D02*
D03*
X130000Y285000D02*
D03*
Y295000D02*
D03*
Y355000D02*
D03*
Y345000D02*
D03*
Y335000D02*
D03*
Y325000D02*
D03*
Y315000D02*
D03*
Y305000D02*
D03*
Y215000D02*
D03*
Y225000D02*
D03*
Y235000D02*
D03*
Y245000D02*
D03*
Y255000D02*
D03*
Y265000D02*
D03*
D40*
X302000Y331000D02*
D03*
X307000Y321000D02*
D03*
X220000Y167000D02*
D03*
X252000Y146000D02*
D03*
X305000Y441000D02*
D03*
Y405000D02*
D03*
Y454000D02*
D03*
Y416000D02*
D03*
X300000Y251000D02*
D03*
X287000Y176000D02*
D03*
Y195000D02*
D03*
X56000Y523000D02*
D03*
M02*
