G04 Layer_Color=7318015*
%FSLAX25Y25*%
%MOIN*%
G70*
G01*
G75*
%ADD10R,0.05709X0.11024*%
%ADD11R,0.05315X0.03937*%
%ADD12R,0.05500X0.04000*%
%ADD13R,0.05709X0.04528*%
%ADD14R,0.06102X0.05315*%
%ADD15R,0.05906X0.05512*%
%ADD16R,0.04921X0.06102*%
%ADD17R,0.04134X0.05709*%
%ADD18R,0.03937X0.05315*%
D10*
X267004Y327000D02*
D03*
X254996D02*
D03*
D11*
X269000Y275543D02*
D03*
Y268457D02*
D03*
X307000Y246457D02*
D03*
Y253543D02*
D03*
X277500Y148957D02*
D03*
Y156043D02*
D03*
X306000Y278457D02*
D03*
Y285543D02*
D03*
D12*
X287500Y156250D02*
D03*
Y148750D02*
D03*
X260000Y156250D02*
D03*
Y148750D02*
D03*
D13*
X220000Y174055D02*
D03*
Y180945D02*
D03*
D14*
Y203839D02*
D03*
Y196161D02*
D03*
D15*
X147500Y166260D02*
D03*
Y173740D02*
D03*
X220000Y238740D02*
D03*
Y231260D02*
D03*
D16*
X138465Y202500D02*
D03*
X146535D02*
D03*
D17*
X148642Y265000D02*
D03*
X141358D02*
D03*
D18*
X277457Y348000D02*
D03*
X284543D02*
D03*
X290457Y416000D02*
D03*
X297543D02*
D03*
X290457Y405000D02*
D03*
X297543D02*
D03*
Y465000D02*
D03*
X290457D02*
D03*
X290457Y427000D02*
D03*
X297543D02*
D03*
X290457Y441000D02*
D03*
X297543D02*
D03*
Y454000D02*
D03*
X290457D02*
D03*
X297543Y476000D02*
D03*
X290457D02*
D03*
M02*
