G04 Layer_Color=8150272*
%FSLAX25Y25*%
%MOIN*%
G70*
G01*
G75*
%ADD58R,0.07099X0.07099*%
%ADD59C,0.07099*%
G04:AMPARAMS|DCode=60|XSize=204.85mil|YSize=126.11mil|CornerRadius=63.06mil|HoleSize=0mil|Usage=FLASHONLY|Rotation=0.000|XOffset=0mil|YOffset=0mil|HoleType=Round|Shape=RoundedRectangle|*
%AMROUNDEDRECTD60*
21,1,0.20485,0.00000,0,0,0.0*
21,1,0.07874,0.12611,0,0,0.0*
1,1,0.12611,0.03937,0.00000*
1,1,0.12611,-0.03937,0.00000*
1,1,0.12611,-0.03937,0.00000*
1,1,0.12611,0.03937,0.00000*
%
%ADD60ROUNDEDRECTD60*%
%ADD61C,0.10300*%
%ADD62C,0.10299*%
G04:AMPARAMS|DCode=63|XSize=204.85mil|YSize=126.11mil|CornerRadius=63.06mil|HoleSize=0mil|Usage=FLASHONLY|Rotation=90.000|XOffset=0mil|YOffset=0mil|HoleType=Round|Shape=RoundedRectangle|*
%AMROUNDEDRECTD63*
21,1,0.20485,0.00000,0,0,90.0*
21,1,0.07874,0.12611,0,0,90.0*
1,1,0.12611,0.00000,0.03937*
1,1,0.12611,0.00000,-0.03937*
1,1,0.12611,0.00000,-0.03937*
1,1,0.12611,0.00000,0.03937*
%
%ADD63ROUNDEDRECTD63*%
%ADD64R,0.06800X0.08800*%
%ADD65O,0.06800X0.08800*%
%ADD66C,0.06800*%
%ADD67C,0.08300*%
%ADD68R,0.06800X0.06800*%
%ADD69O,0.16800X0.08800*%
%ADD70C,0.30800*%
%ADD71C,0.07493*%
%ADD72R,0.07493X0.07493*%
%ADD73C,0.08000*%
%ADD74O,0.11800X0.08800*%
%ADD75C,0.05800*%
D58*
X185000Y175000D02*
D03*
D59*
X175000D02*
D03*
X165000D02*
D03*
D60*
X288000Y259157D02*
D03*
Y278843D02*
D03*
Y214157D02*
D03*
Y233843D02*
D03*
X157500Y295157D02*
D03*
Y314843D02*
D03*
X157000Y348157D02*
D03*
Y367843D02*
D03*
X288000Y306157D02*
D03*
Y325843D02*
D03*
D61*
X325000Y125472D02*
D03*
X122500D02*
D03*
D62*
X325000Y145157D02*
D03*
Y164843D02*
D03*
Y184528D02*
D03*
X122500Y145157D02*
D03*
Y164843D02*
D03*
Y184528D02*
D03*
D63*
X284843Y130000D02*
D03*
X265157D02*
D03*
X189843D02*
D03*
X170157D02*
D03*
X252343Y255000D02*
D03*
X232657D02*
D03*
X202343D02*
D03*
X182657D02*
D03*
D64*
X240000Y175000D02*
D03*
D65*
X250000D02*
D03*
X260000D02*
D03*
D66*
X225748Y141142D02*
D03*
Y127362D02*
D03*
X163000Y480000D02*
D03*
X173000D02*
D03*
X253000D02*
D03*
X243000D02*
D03*
X233000D02*
D03*
X223000D02*
D03*
X213000D02*
D03*
X203000D02*
D03*
X193000D02*
D03*
X183000D02*
D03*
X153000Y400000D02*
D03*
X163000D02*
D03*
X173000D02*
D03*
X183000D02*
D03*
X193000D02*
D03*
X203000D02*
D03*
X213000D02*
D03*
X223000D02*
D03*
X233000D02*
D03*
X243000D02*
D03*
X253000D02*
D03*
X263000D02*
D03*
X273000D02*
D03*
X143000Y480000D02*
D03*
X153000D02*
D03*
X263000D02*
D03*
X273000D02*
D03*
D67*
X192500Y155000D02*
D03*
X157500D02*
D03*
X174500Y387000D02*
D03*
X209500D02*
D03*
D68*
X143000Y400000D02*
D03*
D69*
X261000Y287000D02*
D03*
Y297000D02*
D03*
Y307000D02*
D03*
Y348000D02*
D03*
Y358000D02*
D03*
Y368000D02*
D03*
D70*
X191000Y297000D02*
D03*
Y358000D02*
D03*
D71*
X337500Y285000D02*
D03*
Y265000D02*
D03*
Y275000D02*
D03*
Y225000D02*
D03*
Y235000D02*
D03*
Y255000D02*
D03*
Y245000D02*
D03*
D72*
Y215000D02*
D03*
D73*
X337000Y351000D02*
D03*
Y341000D02*
D03*
Y331000D02*
D03*
Y321000D02*
D03*
Y311000D02*
D03*
Y301000D02*
D03*
X112500Y215000D02*
D03*
Y225000D02*
D03*
Y235000D02*
D03*
Y245000D02*
D03*
Y255000D02*
D03*
Y265000D02*
D03*
D74*
X320000Y215000D02*
D03*
Y341000D02*
D03*
Y351000D02*
D03*
Y361000D02*
D03*
Y371000D02*
D03*
Y381000D02*
D03*
Y391000D02*
D03*
Y331000D02*
D03*
Y321000D02*
D03*
Y311000D02*
D03*
Y301000D02*
D03*
Y235000D02*
D03*
Y245000D02*
D03*
Y255000D02*
D03*
Y265000D02*
D03*
Y275000D02*
D03*
Y285000D02*
D03*
Y225000D02*
D03*
X130000Y285000D02*
D03*
Y295000D02*
D03*
Y355000D02*
D03*
Y345000D02*
D03*
Y335000D02*
D03*
Y325000D02*
D03*
Y315000D02*
D03*
Y305000D02*
D03*
Y215000D02*
D03*
Y225000D02*
D03*
Y235000D02*
D03*
Y245000D02*
D03*
Y255000D02*
D03*
Y265000D02*
D03*
D75*
X302000Y331000D02*
D03*
X307000Y321000D02*
D03*
X220000Y167000D02*
D03*
X252000Y146000D02*
D03*
X305000Y441000D02*
D03*
Y405000D02*
D03*
Y454000D02*
D03*
Y416000D02*
D03*
X300000Y251000D02*
D03*
X287000Y176000D02*
D03*
Y195000D02*
D03*
X56000Y523000D02*
D03*
M02*
