G04 Layer_Physical_Order=1*
G04 Layer_Color=25308*
%FSLAX25Y25*%
%MOIN*%
G70*
G01*
G75*
%ADD10R,0.05709X0.11024*%
%ADD11R,0.05315X0.03937*%
%ADD12R,0.05500X0.04000*%
%ADD13R,0.05709X0.04528*%
%ADD14R,0.06102X0.05315*%
%ADD15R,0.05906X0.05512*%
%ADD16R,0.04921X0.06102*%
%ADD17R,0.04134X0.05709*%
%ADD18R,0.03937X0.05315*%
%ADD19C,0.02500*%
%ADD20C,0.01200*%
%ADD21C,0.02000*%
%ADD22C,0.05000*%
%ADD23C,0.01000*%
%ADD24R,0.06299X0.06299*%
%ADD25C,0.06299*%
G04:AMPARAMS|DCode=26|XSize=196.85mil|YSize=118.11mil|CornerRadius=59.06mil|HoleSize=0mil|Usage=FLASHONLY|Rotation=0.000|XOffset=0mil|YOffset=0mil|HoleType=Round|Shape=RoundedRectangle|*
%AMROUNDEDRECTD26*
21,1,0.19685,0.00000,0,0,0.0*
21,1,0.07874,0.11811,0,0,0.0*
1,1,0.11811,0.03937,0.00000*
1,1,0.11811,-0.03937,0.00000*
1,1,0.11811,-0.03937,0.00000*
1,1,0.11811,0.03937,0.00000*
%
%ADD26ROUNDEDRECTD26*%
%ADD27C,0.10000*%
G04:AMPARAMS|DCode=28|XSize=196.85mil|YSize=118.11mil|CornerRadius=59.06mil|HoleSize=0mil|Usage=FLASHONLY|Rotation=90.000|XOffset=0mil|YOffset=0mil|HoleType=Round|Shape=RoundedRectangle|*
%AMROUNDEDRECTD28*
21,1,0.19685,0.00000,0,0,90.0*
21,1,0.07874,0.11811,0,0,90.0*
1,1,0.11811,0.00000,0.03937*
1,1,0.11811,0.00000,-0.03937*
1,1,0.11811,0.00000,-0.03937*
1,1,0.11811,0.00000,0.03937*
%
%ADD28ROUNDEDRECTD28*%
%ADD29R,0.06000X0.08000*%
%ADD30O,0.06000X0.08000*%
%ADD31C,0.06000*%
%ADD32C,0.07500*%
%ADD33R,0.06000X0.06000*%
%ADD34O,0.16000X0.08000*%
%ADD35C,0.30000*%
%ADD36C,0.06693*%
%ADD37R,0.06693X0.06693*%
%ADD38C,0.07200*%
%ADD39O,0.11000X0.08000*%
%ADD40C,0.05000*%
G36*
X196000Y190000D02*
X195000Y191000D01*
X154000D01*
Y234000D01*
X196000D01*
Y190000D01*
D02*
G37*
G36*
X270000Y196000D02*
X236000D01*
Y206000D01*
X230000Y212000D01*
X229000D01*
Y225000D01*
X237000Y233000D01*
Y235000D01*
X270000D01*
Y196000D01*
D02*
G37*
D10*
X267004Y327000D02*
D03*
X254996D02*
D03*
D11*
X269000Y275543D02*
D03*
Y268457D02*
D03*
X307000Y246457D02*
D03*
Y253543D02*
D03*
X277500Y148957D02*
D03*
Y156043D02*
D03*
X306000Y278457D02*
D03*
Y285543D02*
D03*
D12*
X287500Y156250D02*
D03*
Y148750D02*
D03*
X260000Y156250D02*
D03*
Y148750D02*
D03*
D13*
X220000Y174055D02*
D03*
Y180945D02*
D03*
D14*
Y203839D02*
D03*
Y196161D02*
D03*
D15*
X147500Y166260D02*
D03*
Y173740D02*
D03*
X220000Y238740D02*
D03*
Y231260D02*
D03*
D16*
X138465Y202500D02*
D03*
X146535D02*
D03*
D17*
X148642Y265000D02*
D03*
X141358D02*
D03*
D18*
X277457Y348000D02*
D03*
X284543D02*
D03*
X290457Y416000D02*
D03*
X297543D02*
D03*
X290457Y405000D02*
D03*
X297543D02*
D03*
Y465000D02*
D03*
X290457D02*
D03*
X290457Y427000D02*
D03*
X297543D02*
D03*
X290457Y441000D02*
D03*
X297543D02*
D03*
Y454000D02*
D03*
X290457D02*
D03*
X297543Y476000D02*
D03*
X290457D02*
D03*
D19*
X268161Y325843D02*
X288000D01*
X267004Y327000D02*
X268161Y325843D01*
X252996Y325000D02*
X254996Y327000D01*
X175000Y325000D02*
X252996D01*
X275000Y298000D02*
Y302000D01*
X274000Y297000D02*
X275000Y298000D01*
X261000Y297000D02*
X274000D01*
X252000Y358000D02*
X261000D01*
X249000Y355000D02*
X252000Y358000D01*
X249000Y335000D02*
Y355000D01*
X245000Y331000D02*
X249000Y335000D01*
X185000Y331000D02*
X245000D01*
X157000Y367843D02*
Y384000D01*
X160000Y387000D02*
X174500D01*
X157000Y384000D02*
X160000Y387000D01*
X188000D02*
X209500D01*
X181000Y380000D02*
X188000Y387000D01*
X175000Y380000D02*
X181000D01*
X171000Y376000D02*
X175000Y380000D01*
X171000Y351315D02*
Y376000D01*
X167843Y348157D02*
X171000Y351315D01*
X157000Y348157D02*
X167843D01*
X170000Y330000D02*
X175000Y325000D01*
X145000Y330000D02*
X170000D01*
X142000Y327000D02*
X145000Y330000D01*
X142000Y313000D02*
Y327000D01*
X167843Y348157D02*
X185000Y331000D01*
X275000Y302000D02*
X279157Y306157D01*
X288000D01*
X287843Y326000D02*
X288000Y325843D01*
D20*
X261000Y277000D02*
Y287000D01*
Y277000D02*
X262457Y275543D01*
X269000D01*
X307000Y321000D02*
Y346000D01*
X305000Y348000D02*
X307000Y346000D01*
X284543Y348000D02*
X305000D01*
X261000D02*
X277457D01*
X297543Y441000D02*
X305000D01*
X302000Y316000D02*
Y331000D01*
Y316000D02*
X306000Y312000D01*
Y285543D02*
Y312000D01*
X312000Y427000D02*
Y464000D01*
Y280000D02*
Y427000D01*
X297543D02*
X312000D01*
X297543Y465000D02*
X311000D01*
X312000Y464000D01*
X220000Y167000D02*
Y174055D01*
X254250Y148750D02*
X260000D01*
X253000Y147500D02*
X254250Y148750D01*
X297543Y405000D02*
X305000D01*
X297543Y454000D02*
X305000D01*
X297543Y416000D02*
X305000D01*
X300000Y251000D02*
X300457D01*
X303000Y253543D01*
X307000D01*
X312000Y280000D02*
X317000Y275000D01*
X320000D01*
X314000Y245000D02*
X320000D01*
X311000Y242000D02*
X314000Y245000D01*
X311000Y203000D02*
Y242000D01*
X303000Y195000D02*
X311000Y203000D01*
X202343Y255000D02*
X218000D01*
X220000Y253000D01*
Y238740D02*
Y253000D01*
Y180945D02*
Y196161D01*
Y180945D02*
X228055D01*
X234000Y175000D01*
X240000D01*
X112500Y265000D02*
X130000D01*
X141358D01*
X141000Y211000D02*
Y264642D01*
X138000Y208000D02*
X141000Y211000D01*
X118000Y208000D02*
X138000D01*
X112000Y202000D02*
X118000Y208000D01*
X112000Y148315D02*
Y202000D01*
Y148315D02*
X115157Y145157D01*
X122500D01*
X139000Y169000D02*
Y201965D01*
X134843Y164843D02*
X139000Y169000D01*
X122500Y164843D02*
X134843D01*
X277500Y156043D02*
X287293D01*
X265157Y137657D02*
X276457Y148957D01*
X265157Y130000D02*
Y137657D01*
X287500Y132657D02*
Y148750D01*
X284843Y130000D02*
X287500Y132657D01*
X285000Y405000D02*
X290457D01*
X280000Y410000D02*
X285000Y405000D01*
X186000Y410000D02*
X280000D01*
X183000Y407000D02*
X186000Y410000D01*
X183000Y400000D02*
Y407000D01*
X176000Y416000D02*
X290457D01*
X173000Y413000D02*
X176000Y416000D01*
X173000Y400000D02*
Y413000D01*
X166000Y427000D02*
X290457D01*
X163000Y424000D02*
X166000Y427000D01*
X163000Y400000D02*
Y424000D01*
X148000Y441000D02*
X290457D01*
X143000Y436000D02*
X148000Y441000D01*
X143000Y400000D02*
Y436000D01*
X187000Y454000D02*
X290457D01*
X183000Y458000D02*
X187000Y454000D01*
X183000Y458000D02*
Y480000D01*
X194000Y465000D02*
X290457D01*
X193000Y466000D02*
X194000Y465000D01*
X193000Y466000D02*
Y480000D01*
X285000Y476000D02*
X290457D01*
X281000Y472000D02*
X285000Y476000D01*
X206000Y472000D02*
X281000D01*
X203000Y475000D02*
X206000Y472000D01*
X203000Y476000D02*
Y480000D01*
X269000Y268457D02*
X304543D01*
X308000Y265000D01*
X320000D01*
X307000Y237000D02*
Y246457D01*
X303843Y233843D02*
X307000Y237000D01*
X288000Y233843D02*
X303843D01*
X288386Y278457D02*
X306000D01*
X297543Y476000D02*
Y479457D01*
X295000Y482000D02*
X297543Y479457D01*
X275000Y482000D02*
X295000D01*
X273000Y480000D02*
X275000Y482000D01*
X112500Y255000D02*
X130000D01*
X112500Y245000D02*
X130000D01*
X112500Y235000D02*
X130000D01*
X112500Y225000D02*
X130000D01*
X112500Y215000D02*
X130000D01*
X320000Y245000D02*
X337500D01*
X147500Y173740D02*
Y187600D01*
X146535Y188565D02*
X147500Y187600D01*
X146535Y188565D02*
Y202500D01*
X203000Y475000D02*
Y476000D01*
X276457Y148957D02*
X277500D01*
X162500Y130000D02*
X170157D01*
X141358Y264642D02*
Y265000D01*
X288000Y278843D02*
X290200D01*
X288386Y278600D02*
X290200D01*
X288386Y278457D02*
Y278600D01*
X138465Y201965D02*
Y202500D01*
X320000Y215000D02*
X337500D01*
X320000Y225000D02*
X337500D01*
X320000Y235000D02*
X337500D01*
X182657Y255000D02*
Y255600D01*
X148642D02*
Y256142D01*
X320000Y255000D02*
X337500D01*
X320000Y265000D02*
X337500D01*
X320000Y275000D02*
X337500D01*
X320000Y285000D02*
X337500D01*
X320000Y301000D02*
X337000D01*
X320000Y311000D02*
X337000D01*
X320000Y321000D02*
X337000D01*
X320000Y331000D02*
X337000D01*
X320000Y341000D02*
X337000D01*
X320000Y351000D02*
X337000D01*
X290200Y278600D02*
Y278843D01*
X138465Y201965D02*
X139000D01*
X141000Y264642D02*
X141358D01*
X148642Y255600D02*
X182657D01*
X141000Y264642D02*
X141358D01*
X138465Y201965D02*
X139000D01*
X290200Y278600D02*
Y278843D01*
X287500Y156250D02*
Y175500D01*
X287000Y176000D02*
X287500Y175500D01*
X287000Y195000D02*
X303000D01*
D21*
X175000Y170000D02*
Y175000D01*
X171260Y166260D02*
X175000Y170000D01*
X147500Y166260D02*
X171260D01*
D22*
X116000Y476000D02*
X120000Y480000D01*
X116000Y320000D02*
Y476000D01*
Y320000D02*
X121000Y315000D01*
X130000D01*
X140000D01*
X142000Y313000D01*
Y282000D02*
Y313000D01*
Y282000D02*
X148642Y275358D01*
Y265000D02*
Y275358D01*
Y256142D02*
Y265000D01*
X311843Y145157D02*
X325000D01*
X306000Y151000D02*
X311843Y145157D01*
X306000Y151000D02*
Y177000D01*
X298000Y185000D02*
X306000Y177000D01*
X253000Y185000D02*
X298000D01*
X250000Y182000D02*
X253000Y185000D01*
X250000Y175000D02*
Y182000D01*
X233000Y239000D02*
Y254657D01*
X225260Y231260D02*
X233000Y239000D01*
X220000Y231260D02*
X225260D01*
X220000Y203839D02*
Y231260D01*
Y203839D02*
X227161D01*
X230000Y201000D01*
Y193000D02*
Y201000D01*
Y193000D02*
X235000Y188000D01*
X244000D01*
X250000Y182000D01*
X147500Y173740D02*
X148760Y175000D01*
X165000D01*
X192500Y155000D02*
X258750D01*
X225748Y141142D02*
Y154252D01*
X258750Y155000D02*
X260000Y156250D01*
Y175000D01*
X185000Y170000D02*
Y175000D01*
Y170000D02*
X192500Y162500D01*
Y155000D02*
Y162500D01*
X157500Y135000D02*
X162500Y130000D01*
X157500Y135000D02*
Y155000D01*
X120000Y480000D02*
X143000D01*
X147500Y255000D02*
X182657D01*
X232657D02*
X233000Y254657D01*
X147500Y173740D02*
Y255000D01*
D23*
X318285Y487998D02*
Y479000D01*
X318714Y487998D02*
X321285Y480285D01*
X318285Y487998D02*
X321285Y479000D01*
X324284Y487998D02*
X321285Y479000D01*
X324284Y487998D02*
Y479000D01*
X324713Y487998D02*
Y479000D01*
X317000Y487998D02*
X318714D01*
X324284D02*
X325998D01*
X317000Y479000D02*
X319571D01*
X322999D02*
X325998D01*
X328312Y487998D02*
Y479000D01*
X328740Y487998D02*
Y479000D01*
X327026Y487998D02*
X330026D01*
X327026Y479000D02*
X330026D01*
X334653Y487998D02*
Y479000D01*
X335082Y487998D02*
Y479000D01*
X332083Y487998D02*
X331654Y485427D01*
Y487998D01*
X338081D01*
Y485427D01*
X337653Y487998D01*
X333368Y479000D02*
X336367D01*
D24*
X185000Y175000D02*
D03*
D25*
X175000D02*
D03*
X165000D02*
D03*
D26*
X288000Y259157D02*
D03*
Y278843D02*
D03*
Y214157D02*
D03*
Y233843D02*
D03*
X157500Y295157D02*
D03*
Y314843D02*
D03*
X157000Y348157D02*
D03*
Y367843D02*
D03*
X288000Y306157D02*
D03*
Y325843D02*
D03*
D27*
X325000Y125472D02*
D03*
Y145157D02*
D03*
Y164843D02*
D03*
Y184528D02*
D03*
X122500Y125472D02*
D03*
Y145157D02*
D03*
Y164843D02*
D03*
Y184528D02*
D03*
D28*
X284843Y130000D02*
D03*
X265157D02*
D03*
X189843D02*
D03*
X170157D02*
D03*
X252343Y255000D02*
D03*
X232657D02*
D03*
X202343D02*
D03*
X182657D02*
D03*
D29*
X240000Y175000D02*
D03*
D30*
X250000D02*
D03*
X260000D02*
D03*
D31*
X225748Y141142D02*
D03*
Y127362D02*
D03*
X163000Y480000D02*
D03*
X173000D02*
D03*
X253000D02*
D03*
X243000D02*
D03*
X233000D02*
D03*
X223000D02*
D03*
X213000D02*
D03*
X203000D02*
D03*
X193000D02*
D03*
X183000D02*
D03*
X153000Y400000D02*
D03*
X163000D02*
D03*
X173000D02*
D03*
X183000D02*
D03*
X193000D02*
D03*
X203000D02*
D03*
X213000D02*
D03*
X223000D02*
D03*
X233000D02*
D03*
X243000D02*
D03*
X253000D02*
D03*
X263000D02*
D03*
X273000D02*
D03*
X143000Y480000D02*
D03*
X153000D02*
D03*
X263000D02*
D03*
X273000D02*
D03*
D32*
X192500Y155000D02*
D03*
X157500D02*
D03*
X174500Y387000D02*
D03*
X209500D02*
D03*
D33*
X143000Y400000D02*
D03*
D34*
X261000Y287000D02*
D03*
Y297000D02*
D03*
Y307000D02*
D03*
Y348000D02*
D03*
Y358000D02*
D03*
Y368000D02*
D03*
D35*
X191000Y297000D02*
D03*
Y358000D02*
D03*
D36*
X337500Y285000D02*
D03*
Y265000D02*
D03*
Y275000D02*
D03*
Y225000D02*
D03*
Y235000D02*
D03*
Y255000D02*
D03*
Y245000D02*
D03*
D37*
Y215000D02*
D03*
D38*
X337000Y351000D02*
D03*
Y341000D02*
D03*
Y331000D02*
D03*
Y321000D02*
D03*
Y311000D02*
D03*
Y301000D02*
D03*
X112500Y215000D02*
D03*
Y225000D02*
D03*
Y235000D02*
D03*
Y245000D02*
D03*
Y255000D02*
D03*
Y265000D02*
D03*
D39*
X320000Y215000D02*
D03*
Y341000D02*
D03*
Y351000D02*
D03*
Y361000D02*
D03*
Y371000D02*
D03*
Y381000D02*
D03*
Y391000D02*
D03*
Y331000D02*
D03*
Y321000D02*
D03*
Y311000D02*
D03*
Y301000D02*
D03*
Y235000D02*
D03*
Y245000D02*
D03*
Y255000D02*
D03*
Y265000D02*
D03*
Y275000D02*
D03*
Y285000D02*
D03*
Y225000D02*
D03*
X130000Y285000D02*
D03*
Y295000D02*
D03*
Y355000D02*
D03*
Y345000D02*
D03*
Y335000D02*
D03*
Y325000D02*
D03*
Y315000D02*
D03*
Y305000D02*
D03*
Y215000D02*
D03*
Y225000D02*
D03*
Y235000D02*
D03*
Y245000D02*
D03*
Y255000D02*
D03*
Y265000D02*
D03*
D40*
X302000Y331000D02*
D03*
X307000Y321000D02*
D03*
X220000Y167000D02*
D03*
X252000Y146000D02*
D03*
X305000Y441000D02*
D03*
Y405000D02*
D03*
Y454000D02*
D03*
Y416000D02*
D03*
X300000Y251000D02*
D03*
X287000Y176000D02*
D03*
Y195000D02*
D03*
X56000Y523000D02*
D03*
M02*
